<?xml version="1.0" standalone="no"?>
<!DOCTYPE svg PUBLIC "-//W3C//DTD SVG 20010904//EN"
 "http://www.w3.org/TR/2001/REC-SVG-20010904/DTD/svg10.dtd">
<svg version="1.0" xmlns="http://www.w3.org/2000/svg"
 width="625.000000pt" height="625.000000pt" viewBox="0 0 625.000000 625.000000"
 preserveAspectRatio="xMidYMid meet">
<metadata>
Created by potrace 1.14, written by Peter Selinger 2001-2017
</metadata>
<g transform="translate(0.000000,625.000000) scale(0.100000,-0.100000)"
fill="#000000" stroke="none">
<path d="M395 5879 c5 -12 0 -16 -17 -15 -13 1 -28 5 -33 8 -6 4 -17 3 -25 -3
-21 -13 -32 -11 -24 4 6 8 3 8 -9 -1 -9 -8 -20 -11 -25 -8 -5 3 -9 -1 -9 -9 0
-8 7 -15 16 -16 12 0 11 -3 -4 -9 -11 -5 -14 -9 -6 -9 11 -1 11 -4 0 -17 -10
-13 -10 -17 2 -25 12 -7 12 -9 -1 -9 -13 0 -13 -1 0 -10 13 -8 13 -10 1 -10
-11 0 -9 -4 5 -15 10 -8 15 -14 9 -13 -5 2 -10 -1 -10 -7 0 -5 4 -9 8 -7 5 1
6 -2 2 -8 -3 -6 -10 -8 -14 -5 -5 2 -8 -9 -7 -25 1 -17 5 -30 10 -30 5 0 3 -7
-4 -15 -10 -12 -10 -15 0 -15 10 0 10 -3 0 -15 -10 -12 -10 -15 0 -15 10 0 10
-3 0 -15 -7 -9 -8 -15 -2 -15 5 0 13 -7 16 -16 5 -14 4 -15 -8 -5 -12 10 -15
9 -13 -8 1 -12 8 -21 17 -21 13 0 13 -2 1 -9 -15 -10 -22 -91 -8 -91 4 0 7 -5
7 -11 0 -5 -4 -8 -9 -4 -5 3 -13 1 -16 -5 -4 -6 -3 -10 2 -9 20 3 25 -2 13
-16 -9 -10 -9 -15 -1 -15 6 0 11 -5 11 -11 0 -5 -4 -8 -9 -4 -5 3 -13 1 -16
-5 -4 -6 -1 -9 6 -8 6 2 12 -7 14 -19 1 -12 -2 -20 -7 -17 -4 3 -8 1 -8 -5 0
-5 6 -11 13 -14 9 -3 9 -7 -2 -20 -7 -10 -9 -17 -3 -17 5 0 13 -7 16 -16 5
-13 3 -14 -7 -6 -10 8 -13 6 -13 -9 0 -10 4 -19 9 -19 5 0 4 -7 -3 -15 -7 -8
-8 -15 -3 -15 5 0 10 -7 10 -15 0 -8 -4 -12 -9 -9 -4 3 -8 0 -8 -5 0 -6 6 -11
13 -11 8 0 7 -4 -3 -10 -12 -8 -12 -10 5 -10 19 -1 19 -1 2 -11 -15 -9 -16
-13 -5 -27 10 -12 10 -14 0 -8 -6 4 -12 2 -12 -3 0 -6 6 -11 13 -11 8 0 7 -4
-3 -10 -12 -8 -12 -10 5 -11 l20 0 -20 -9 c-13 -6 -15 -9 -5 -9 9 -1 11 -4 5
-9 -13 -9 -14 -82 -2 -82 5 0 4 -7 -3 -15 -10 -12 -10 -15 0 -15 10 0 10 -3 0
-15 -7 -9 -8 -15 -2 -15 5 0 13 -7 16 -16 5 -14 4 -15 -8 -5 -12 10 -15 9 -13
-8 1 -12 8 -21 17 -21 13 0 13 -2 1 -9 -15 -10 -22 -91 -8 -91 4 0 7 -5 7 -11
0 -5 -4 -8 -9 -4 -5 3 -13 0 -17 -6 -4 -7 -3 -10 2 -7 5 3 16 -1 24 -10 13
-14 12 -15 -3 -9 -9 3 -17 2 -17 -3 0 -6 5 -10 11 -10 8 0 7 -6 -2 -17 -11
-13 -11 -17 -1 -20 6 -3 9 -10 5 -16 -10 -17 -11 -47 -1 -53 4 -3 5 -10 2 -16
-12 -19 -13 -73 -1 -80 7 -4 7 -11 -2 -22 -9 -11 -10 -16 -2 -16 6 0 11 -5 11
-11 0 -5 -4 -8 -9 -4 -5 3 -13 1 -16 -5 -4 -6 -1 -9 6 -8 6 2 12 -7 14 -19 1
-12 -2 -20 -7 -17 -4 3 -8 1 -8 -5 0 -5 6 -11 13 -14 9 -3 9 -7 -1 -19 -10
-13 -10 -17 3 -22 8 -3 15 -11 14 -18 0 -10 -2 -10 -6 0 -7 19 -19 14 -19 -8
0 -11 3 -20 6 -20 4 0 7 -7 7 -15 0 -8 -4 -12 -9 -9 -13 8 -10 -10 4 -25 11
-11 11 -13 0 -7 -6 4 -12 3 -12 -3 0 -5 6 -11 13 -14 9 -3 9 -7 -2 -20 -11
-14 -11 -17 0 -17 11 0 11 -2 -1 -10 -10 -6 -11 -10 -2 -10 6 0 12 -5 12 -11
0 -5 -4 -8 -9 -4 -5 3 -13 0 -17 -6 -5 -8 -3 -9 6 -4 10 6 12 3 8 -13 -3 -12
-1 -23 6 -26 8 -3 8 -5 -1 -5 -8 -1 -9 -10 -3 -32 8 -26 7 -29 -5 -19 -20 17
-19 5 1 -15 13 -12 14 -19 4 -30 -9 -11 -9 -15 -1 -15 6 0 11 -5 11 -11 0 -5
-4 -8 -9 -4 -5 3 -13 1 -16 -5 -4 -6 -3 -10 2 -9 20 3 25 -2 13 -16 -9 -10 -9
-15 -1 -15 6 0 11 -5 11 -11 0 -5 -5 -7 -10 -4 -13 8 -9 -17 4 -27 6 -4 4 -13
-3 -22 -11 -13 -11 -16 0 -16 11 0 11 -2 -1 -10 -14 -9 -7 -14 15 -11 6 1 3
-4 -5 -11 -17 -15 -26 -43 -11 -34 5 4 9 -3 8 -14 -1 -12 -6 -19 -14 -15 -11
3 -11 0 -2 -16 6 -11 8 -27 5 -35 -3 -8 -1 -14 4 -14 6 0 10 -5 10 -11 0 -5
-5 -7 -10 -4 -13 8 -9 -17 4 -27 6 -4 4 -13 -3 -22 -11 -13 -11 -16 0 -16 12
0 12 -2 0 -9 -11 -7 -11 -9 0 -14 9 -4 10 -8 4 -14 -13 -11 -18 -36 -6 -29 5
4 9 -3 8 -14 -1 -13 -6 -19 -15 -15 -7 2 -10 0 -7 -5 13 -21 24 -70 14 -65 -5
4 -9 2 -9 -4 0 -5 6 -11 12 -14 10 -3 9 -8 -2 -22 -13 -17 -13 -18 0 -10 13 8
13 7 1 -8 -9 -11 -10 -17 -2 -17 6 0 11 -5 11 -11 0 -5 -4 -8 -9 -4 -5 3 -13
0 -17 -6 -5 -8 -3 -9 6 -4 10 6 12 3 8 -13 -4 -12 -1 -22 4 -22 6 0 5 -7 -3
-16 -10 -13 -10 -17 1 -24 11 -7 11 -11 1 -24 -11 -13 -11 -16 0 -16 11 0 11
-2 -1 -10 -12 -8 -12 -10 -1 -10 10 0 11 -3 2 -14 -10 -11 -8 -17 6 -26 16
-10 16 -11 0 -6 -9 3 -17 1 -17 -4 0 -6 6 -10 13 -10 7 0 8 -3 2 -8 -12 -9
-15 -52 -3 -52 4 0 8 -5 8 -11 0 -5 -4 -8 -9 -4 -5 3 -13 1 -16 -5 -4 -6 -3
-10 2 -9 20 3 25 -2 13 -16 -9 -10 -9 -15 -1 -15 6 0 11 -5 11 -11 0 -5 -4 -8
-9 -4 -5 3 -13 1 -16 -5 -4 -6 -1 -9 7 -8 7 2 11 -3 9 -12 -7 -28 -6 -140 2
-140 4 0 7 -5 7 -11 0 -5 -4 -8 -9 -4 -5 3 -13 1 -16 -5 -4 -6 -3 -10 2 -9 20
3 25 -2 13 -16 -10 -12 -10 -15 0 -15 10 0 10 -3 0 -15 -7 -9 -8 -15 -2 -15 5
0 13 -7 16 -16 5 -13 3 -14 -7 -6 -10 9 -13 4 -13 -24 0 -18 4 -34 9 -34 4 0
5 -5 1 -12 -10 -16 -11 -58 -2 -58 4 0 8 -5 8 -11 0 -5 -4 -8 -9 -4 -5 3 -13
1 -16 -5 -4 -6 -3 -10 2 -9 20 3 25 -2 13 -16 -9 -10 -9 -15 -1 -15 6 0 11 -5
11 -11 0 -5 -4 -8 -9 -4 -5 3 -13 1 -16 -5 -4 -6 -1 -9 6 -8 6 2 12 -7 14 -19
1 -12 -2 -20 -7 -17 -4 3 -8 0 -8 -5 0 -6 4 -11 9 -11 6 0 9 -9 8 -20 -1 -14
-6 -19 -16 -15 -10 4 -9 -1 5 -16 10 -12 13 -19 7 -15 -7 4 -13 3 -13 -3 0 -5
6 -11 13 -14 9 -4 9 -7 -1 -18 -14 -16 -16 -33 -2 -24 5 3 10 1 10 -4 0 -6 -5
-11 -11 -11 -8 0 -7 -5 1 -15 7 -9 10 -18 6 -22 -3 -3 -6 0 -6 7 0 7 -3 10 -6
7 -4 -4 -1 -13 6 -22 10 -12 10 -15 -1 -15 -11 0 -11 -2 1 -10 13 -8 13 -10 1
-10 -12 0 -12 -3 -3 -12 7 -7 12 -17 12 -23 0 -5 -5 -3 -10 5 -6 9 -10 10 -10
3 0 -6 5 -15 11 -19 8 -4 7 -9 -2 -15 -12 -8 -11 -11 1 -19 13 -9 13 -10 0
-10 -13 0 -13 -1 0 -10 9 -6 11 -13 5 -17 -15 -12 -17 -34 -4 -49 9 -11 9 -14
-1 -14 -9 0 -9 -4 1 -17 10 -11 10 -14 2 -9 -7 4 -13 2 -13 -3 0 -6 6 -11 13
-11 8 0 7 -4 -3 -10 -10 -6 -11 -10 -2 -10 6 0 12 -5 12 -11 0 -5 -4 -8 -8 -5
-5 3 -9 -1 -9 -9 0 -8 4 -15 9 -15 4 0 8 -5 8 -11 0 -5 -5 -7 -11 -3 -7 4 -7
-1 1 -16 8 -15 8 -20 1 -16 -6 4 -11 3 -11 -3 0 -5 6 -12 13 -14 8 -4 8 -8 2
-14 -15 -12 -17 -33 -5 -48 8 -10 7 -14 -2 -18 -10 -4 -10 -8 2 -16 13 -10 13
-11 0 -11 -12 0 -13 -2 -1 -9 11 -7 11 -9 0 -14 -10 -4 -10 -6 -1 -6 6 -1 12
-6 12 -12 0 -5 -5 -7 -10 -4 -13 8 -9 -17 4 -27 6 -4 4 -13 -3 -22 -11 -13
-11 -16 0 -16 11 0 11 -2 -1 -10 -14 -9 -7 -14 15 -11 6 1 3 -4 -5 -11 -17
-15 -26 -43 -11 -34 5 4 9 -3 8 -14 -1 -12 -6 -19 -14 -15 -11 4 -11 0 -2 -18
7 -12 13 -24 13 -27 1 -3 5 -4 11 -2 5 1 2 -4 -8 -12 -12 -9 -14 -16 -8 -21 6
-3 11 -12 11 -18 0 -7 -4 -6 -10 3 -5 8 -10 10 -10 5 0 -6 5 -16 12 -23 9 -9
9 -12 -3 -12 -12 0 -12 -2 1 -10 8 -5 10 -10 4 -10 -13 0 -14 -31 -1 -47 6 -9
5 -13 -4 -13 -11 0 -11 -2 1 -10 8 -5 10 -10 4 -10 -13 0 -14 -31 -1 -47 6 -9
5 -13 -4 -13 -11 0 -11 -2 1 -10 8 -5 10 -10 4 -10 -13 0 -14 -31 -1 -47 6 -9
6 -13 -3 -13 -9 0 -9 -4 1 -17 10 -11 10 -14 2 -9 -7 4 -13 3 -13 -3 0 -5 6
-12 12 -14 10 -4 10 -8 -1 -15 -9 -7 -10 -12 -2 -16 6 -4 11 -13 11 -19 0 -7
-4 -6 -10 3 -5 8 -10 10 -10 5 0 -6 5 -16 12 -23 9 -9 9 -12 -1 -12 -11 0 -11
-3 0 -17 10 -11 10 -14 1 -9 -6 4 -12 2 -12 -3 0 -6 6 -11 13 -11 8 0 7 -4 -3
-10 -10 -6 -11 -10 -2 -10 6 0 12 -5 12 -11 0 -5 -4 -8 -8 -5 -5 3 -9 -1 -9
-9 0 -8 4 -15 9 -15 4 0 8 -5 8 -11 0 -5 -5 -7 -11 -3 -7 4 -7 -1 1 -16 8 -15
8 -20 1 -16 -6 4 -11 3 -11 -3 0 -5 6 -12 13 -14 8 -4 8 -8 2 -14 -13 -10 -18
-36 -6 -29 5 3 8 -5 7 -18 -1 -20 -4 -22 -15 -13 -12 10 -12 9 -2 -11 7 -13
10 -30 7 -38 -3 -8 -1 -14 4 -14 6 0 10 -5 10 -11 0 -5 -4 -8 -8 -5 -5 3 -9
-1 -9 -9 0 -8 4 -15 9 -15 4 0 8 -5 8 -11 0 -5 -5 -7 -11 -3 -7 4 -7 -1 1 -16
8 -15 8 -20 1 -16 -6 4 -11 2 -11 -3 0 -6 5 -11 11 -11 8 0 8 -4 0 -14 -11
-12 -7 -14 21 -11 25 3 29 2 18 -6 -12 -8 -11 -9 5 -7 11 1 26 -1 34 -6 10 -7
12 -6 6 4 -6 10 -4 12 7 7 9 -3 21 0 28 6 10 9 11 9 6 0 -9 -16 6 -17 20 -3
13 13 46 2 37 -13 -4 -6 -1 -7 8 -2 18 12 68 13 97 3 23 -8 32 6 10 15 -7 3
-3 4 10 4 15 -1 21 -6 17 -16 -4 -11 -2 -11 8 -3 10 9 17 8 27 -1 10 -10 11
-9 5 2 -6 10 -4 13 7 8 9 -3 21 0 28 6 10 9 11 9 6 0 -8 -15 33 -14 53 1 11 8
13 8 8 0 -4 -7 7 -11 36 -10 23 1 48 -3 56 -9 12 -8 13 -7 6 4 -6 11 -4 13 7
8 9 -3 21 0 28 6 10 9 11 9 6 0 -9 -16 6 -17 20 -3 13 13 46 2 37 -13 -4 -6
-1 -7 7 -2 8 5 32 9 55 10 22 0 46 4 53 9 6 4 12 2 12 -3 0 -15 37 -14 43 2 3
8 11 6 27 -8 13 -11 20 -14 15 -6 -6 11 -4 13 7 8 9 -3 21 0 28 6 10 9 11 9 6
0 -4 -7 -3 -13 1 -13 5 0 15 6 22 13 10 8 12 9 7 0 -5 -9 3 -11 28 -9 19 2 39
6 44 10 6 3 12 0 15 -6 3 -10 9 -10 27 0 19 12 25 11 43 -5 11 -10 17 -13 14
-6 -4 6 -3 14 3 18 5 3 10 2 10 -3 0 -5 10 -8 23 -7 12 1 22 3 22 4 0 2 8 4
18 6 13 2 17 -1 13 -12 -5 -12 -3 -13 7 -5 10 9 17 8 27 -1 10 -10 11 -9 5 2
-6 10 -4 13 7 8 9 -3 21 0 28 6 10 10 12 8 7 -6 -5 -13 -3 -16 5 -10 7 4 19 8
28 9 8 1 32 4 53 7 20 4 37 2 37 -2 0 -5 11 -8 24 -7 18 1 22 4 14 14 -15 17
-2 15 16 -4 9 -8 16 -11 16 -5 0 15 43 14 58 -1 9 -9 13 -7 18 5 5 13 10 14
25 6 11 -5 19 -6 18 -2 -3 20 3 23 24 12 21 -12 21 -11 7 6 -10 12 -11 16 -2
11 21 -12 62 -15 55 -3 -4 6 0 8 9 4 9 -3 21 0 27 6 8 8 11 8 11 -2 0 -7 5 -9
10 -6 6 4 8 11 5 16 -3 5 1 6 9 3 9 -3 13 -11 10 -18 -3 -6 1 -3 9 6 11 14 16
15 27 5 8 -8 11 -8 7 -1 -4 7 0 15 9 18 24 9 36 7 28 -6 -4 -7 -3 -8 5 -4 6 4
9 12 5 17 -3 6 1 9 9 7 8 -2 27 10 41 25 29 31 36 25 9 -6 -18 -19 -17 -19 5
-6 12 8 22 17 22 20 0 3 14 5 32 4 29 -2 30 -1 12 12 -19 14 -19 15 1 11 11
-2 26 3 33 12 11 13 12 13 6 0 -7 -13 -5 -13 9 -1 9 7 14 18 10 24 -3 6 -1 7
6 3 6 -4 9 -12 6 -17 -4 -5 -2 -9 3 -9 5 0 12 9 15 20 3 11 13 20 22 20 9 0
14 4 10 9 -3 5 0 13 6 17 8 4 9 3 5 -4 -4 -7 -2 -12 3 -12 6 0 11 7 11 16 0
13 3 14 13 5 19 -15 30 -1 14 17 -9 13 -9 14 1 8 6 -4 12 -2 12 3 0 6 5 11 11
11 5 0 7 -5 3 -12 -5 -7 -3 -8 5 -4 7 5 16 19 21 32 5 13 16 24 25 24 8 0 16
5 16 10 1 6 2 14 3 19 0 5 5 13 10 18 5 5 6 3 2 -4 -14 -25 4 -13 43 30 22 23
41 52 41 65 0 12 5 22 11 22 5 0 7 -5 3 -12 -4 -7 -3 -8 4 -4 6 4 9 13 5 21
-3 8 0 15 7 15 7 0 10 7 6 16 -5 14 -4 15 9 4 13 -11 15 -10 12 6 -1 11 -6 24
-10 31 -4 7 -1 10 10 8 27 -4 35 5 21 23 -11 13 -10 15 4 9 10 -3 20 -1 24 5
4 6 3 8 -4 4 -7 -4 -10 3 -8 21 5 38 4 37 19 25 9 -8 12 -3 11 21 0 18 4 37 9
44 5 7 5 18 1 25 -6 9 -3 9 9 -1 15 -12 17 -12 12 1 -3 8 1 21 9 28 9 7 13 17
9 23 -4 7 0 8 13 3 16 -6 16 -4 -3 14 -29 26 -29 30 0 25 20 -4 21 -3 5 9 -18
13 -24 28 -10 23 6 -2 14 8 11 16 -7 21 -3 44 7 40 6 -2 15 1 20 8 4 7 3 10
-3 6 -6 -4 -14 0 -17 9 -3 8 -2 13 2 10 4 -2 8 14 8 37 1 56 11 101 24 105 6
2 4 9 -6 16 -13 10 -14 15 -4 21 9 6 11 4 5 -5 -5 -8 -4 -11 2 -7 7 4 7 20 -1
48 -9 34 -8 43 2 47 10 3 9 7 -4 16 -13 10 -14 15 -4 21 9 6 11 4 5 -5 -5 -9
-4 -11 4 -6 9 6 9 11 -1 24 -11 13 -10 15 4 9 10 -3 20 -1 24 5 4 6 3 8 -4 4
-6 -3 -14 -2 -17 4 -4 6 -12 7 -19 3 -7 -4 -3 0 7 10 11 9 14 17 8 17 -6 0
-11 5 -11 11 0 6 7 9 15 6 8 -4 17 -2 20 4 4 5 3 9 -2 8 -4 -1 -14 -1 -22 0
-11 1 -11 4 0 18 12 14 12 16 0 9 -9 -6 -12 -5 -9 5 3 8 14 13 24 12 17 -1 16
1 -3 14 -24 16 -33 40 -10 27 7 -5 6 0 -3 11 -14 17 -13 17 10 11 24 -6 24 -6
-3 9 -23 13 -30 35 -11 35 3 0 2 -5 -2 -12 -4 -7 -3 -8 5 -4 9 6 9 11 0 22 -6
8 -8 14 -5 14 4 0 2 10 -5 21 -6 12 -7 19 -1 15 16 -10 22 21 7 34 -18 15 -9
33 14 26 13 -5 13 -4 -2 8 -25 19 -11 86 15 70 7 -4 8 -2 4 4 -4 6 -13 9 -20
6 -7 -3 -16 2 -20 11 -3 9 -2 13 4 10 6 -3 10 1 10 10 0 10 -5 13 -12 9 -7 -4
-4 3 7 16 11 13 15 20 9 17 -7 -4 -15 0 -18 9 -3 8 -2 13 3 10 5 -3 12 1 15
10 4 9 2 13 -5 8 -7 -4 -10 -1 -7 7 3 8 -2 23 -11 33 -11 14 -12 17 -2 11 11
-6 13 -4 8 8 -3 9 -1 19 5 23 7 5 8 2 3 -6 -5 -9 -4 -11 4 -6 6 4 9 12 5 17
-3 5 -10 7 -15 4 -5 -4 -9 0 -10 7 0 7 -2 21 -4 30 -3 15 0 16 18 6 22 -11 22
-11 3 10 -10 12 -24 19 -30 15 -8 -5 -8 -3 0 8 12 16 13 77 1 96 -4 6 -1 14 5
17 7 4 3 4 -10 2 -18 -4 -21 -2 -12 9 7 8 7 15 1 19 -5 3 -7 21 -4 38 l5 33
-23 -20 c-18 -15 -20 -15 -10 -3 7 10 11 27 8 39 -4 14 -2 18 7 12 6 -4 3 0
-7 10 -11 9 -15 17 -10 17 5 0 9 9 9 20 0 11 -4 20 -8 20 -4 0 -8 -5 -8 -12 0
-6 -3 -8 -6 -5 -4 4 -1 13 6 22 11 13 10 14 -3 10 -9 -4 -15 -1 -14 7 1 32 -4
49 -13 43 -5 -3 -10 -1 -10 4 0 6 6 11 13 11 8 0 7 3 -3 9 -8 6 -19 7 -25 3
-5 -3 -4 2 4 11 9 11 10 17 2 17 -6 0 -11 5 -11 11 0 5 6 7 13 3 6 -3 -1 6
-16 21 -16 15 -26 33 -23 40 3 8 -2 12 -12 11 -16 -3 -42 34 -42 59 0 6 -9 20
-20 30 -11 10 -17 22 -13 28 3 6 1 7 -5 3 -6 -4 -9 -14 -6 -24 5 -15 4 -15 -6
1 -9 14 -9 22 1 33 10 12 9 13 -4 8 -9 -3 -24 -1 -34 6 -16 10 -15 10 7 6 14
-3 19 -3 12 0 -9 4 -10 10 -3 18 6 8 6 17 0 26 -8 12 -9 11 -7 -4 4 -24 -15
-31 -35 -12 -8 8 -17 13 -21 11 -3 -3 -4 -2 -1 2 7 8 -15 34 -25 28 -4 -2 -17
6 -29 19 -16 17 -18 23 -7 23 8 0 13 -4 10 -9 -3 -4 1 -5 9 -2 8 3 17 -3 21
-13 6 -15 8 -15 17 -3 8 13 10 13 19 0 5 -8 8 -20 5 -27 -2 -6 2 -17 10 -23
11 -9 13 -7 10 12 -4 19 0 23 25 25 16 1 32 -3 36 -9 5 -8 2 -9 -9 -5 -10 3
-17 2 -17 -3 0 -14 27 -12 37 3 4 6 9 21 10 32 2 15 1 16 -6 6 -6 -9 -10 -10
-16 -2 -5 9 -10 9 -20 1 -17 -14 -57 -22 -50 -9 4 5 10 7 15 4 4 -3 13 2 19 9
9 11 9 16 0 22 -8 4 -9 3 -5 -4 4 -7 1 -12 -7 -12 -22 0 -28 12 -14 29 10 14
10 14 -4 4 -11 -9 -19 -9 -26 -2 -8 8 -13 5 -18 -10 -5 -16 -11 -19 -23 -13
-21 10 -33 10 -51 -2 -11 -7 -13 -5 -8 8 5 12 3 16 -5 13 -7 -2 -21 5 -30 16
-10 11 -18 16 -18 11 0 -6 5 -15 12 -22 9 -9 9 -12 1 -12 -7 0 -15 10 -18 21
-6 17 -9 19 -16 8 -5 -8 -9 -9 -9 -3 0 7 -9 14 -21 17 -18 5 -19 4 -7 -12 7
-9 3 -7 -9 6 -13 14 -23 18 -25 11 -3 -7 -7 -5 -11 6 -4 9 -3 15 2 11 5 -3 12
-1 16 5 3 5 1 10 -6 10 -7 0 -10 2 -7 5 9 10 38 -7 31 -18 -3 -6 -1 -7 6 -3 9
6 9 11 1 21 -9 11 -7 12 9 8 13 -3 21 -1 21 6 0 7 -5 9 -12 5 -7 -4 -8 -3 -4
5 4 6 15 10 24 9 10 -2 16 3 14 11 -3 12 -1 12 14 0 10 -8 15 -9 12 -4 -4 6 2
17 14 24 16 10 19 10 13 -1 -7 -11 -5 -11 6 0 12 11 12 14 -1 22 -8 5 -10 10
-4 10 5 0 15 -5 22 -12 9 -9 12 -7 12 13 0 19 2 21 10 9 8 -13 10 -12 10 3 0
11 12 22 29 28 16 6 31 19 34 31 4 13 10 17 18 12 8 -4 10 -3 5 4 -4 7 -2 12
3 12 6 0 11 10 11 23 0 13 3 17 8 10 5 -8 11 -3 19 13 7 16 7 22 1 17 -7 -4
-8 -1 -4 6 5 7 15 10 23 6 14 -5 14 -3 2 12 -9 11 -10 14 -1 9 7 -4 12 -1 12
9 0 10 5 13 12 9 7 -4 8 -3 4 5 -4 6 0 14 8 17 9 3 16 11 16 16 0 6 -8 7 -17
3 -13 -4 -11 0 5 15 13 12 21 29 18 37 -3 8 -1 11 4 8 6 -3 10 3 10 14 0 12 4
21 10 21 5 0 7 6 4 14 -3 7 2 16 12 20 12 4 13 10 6 19 -7 8 -6 18 3 31 8 10
11 25 8 34 -5 14 -3 14 8 -1 13 -16 14 -14 11 24 -4 33 -2 40 9 33 12 -7 12
-5 0 9 -7 9 -10 17 -5 17 5 0 2 5 -6 10 -13 8 -13 10 1 10 9 0 20 7 23 16 8
21 8 26 -2 20 -5 -3 -9 1 -9 9 0 8 5 11 10 8 6 -4 8 0 4 9 -3 9 0 21 6 28 9
10 9 11 0 6 -9 -5 -11 -2 -7 8 3 9 10 14 14 11 10 -6 8 15 -3 33 -5 7 -3 12 3
12 6 0 8 5 5 10 -4 6 -11 7 -17 4 -7 -5 -8 -2 -4 5 5 7 15 10 25 7 13 -5 13
-4 -2 8 -12 10 -14 15 -6 18 7 2 13 14 14 26 1 11 -2 19 -7 16 -5 -3 -8 9 -8
28 1 18 0 56 -2 85 -2 28 0 49 4 47 5 -3 5 -11 2 -17 -4 -7 -3 -9 1 -4 5 4 9
21 10 38 1 21 -2 28 -12 25 -7 -3 -13 -1 -13 4 0 6 5 10 11 10 8 0 8 4 0 14
-9 11 -8 18 4 30 9 9 12 16 6 16 -6 0 -11 10 -11 23 0 12 -1 36 -2 52 -2 17 3
35 11 41 11 9 12 12 1 19 -8 5 -11 4 -7 -2 3 -5 0 -10 -8 -10 -10 0 -12 4 -5
12 5 7 6 16 2 20 -4 5 2 5 12 1 16 -5 17 -4 6 9 -7 9 -14 29 -15 46 -2 16 -5
33 -9 36 -3 3 2 12 12 20 13 10 14 13 2 11 -9 -2 -15 5 -15 17 0 11 -4 26 -8
33 -5 8 -2 12 10 12 14 1 13 4 -7 15 -14 8 -20 14 -14 15 7 0 15 7 18 16 5 14
4 15 -8 5 -12 -10 -14 -7 -12 19 1 16 -3 30 -8 30 -7 0 -6 3 1 8 8 5 9 13 3
22 -8 13 -10 13 -10 1 0 -8 -3 -11 -6 -8 -4 4 -2 13 5 21 9 10 8 15 -2 19 -8
3 -13 19 -12 41 1 19 -2 33 -7 30 -4 -3 -5 -10 -2 -16 5 -7 2 -8 -5 -4 -7 5
-10 10 -7 13 3 3 0 15 -6 27 -10 19 -10 20 5 7 25 -20 21 -5 -5 20 -13 12 -17
19 -11 15 9 -5 11 -2 7 8 -3 9 -11 16 -18 16 -6 0 -4 5 4 10 11 7 11 10 2 10
-8 0 -10 5 -6 13 5 7 0 6 -11 -3 -10 -8 -16 -10 -12 -3 4 6 1 14 -5 16 -10 4
-10 6 0 6 10 1 10 6 2 21 -6 11 -15 18 -20 15 -4 -3 -6 4 -3 15 4 15 0 20 -13
21 -18 0 -18 1 1 9 19 8 19 9 -2 9 -22 1 -30 21 -23 56 1 6 -4 4 -11 -2 -16
-16 -29 -17 -29 -2 0 5 4 7 10 4 6 -3 10 1 10 10 0 9 -4 13 -10 10 -6 -3 -10
1 -10 9 0 9 -8 16 -17 16 -15 0 -16 2 -3 10 13 8 12 10 -2 10 -10 0 -19 6 -20
13 0 6 -2 17 -3 22 -2 6 -3 14 -4 18 0 4 -10 3 -20 -2 -16 -9 -18 -8 -14 12 4
18 3 19 -6 7 -9 -13 -11 -13 -11 3 0 9 -7 17 -16 17 -8 0 -13 4 -9 9 3 5 1 12
-5 16 -5 3 -10 -1 -10 -9 0 -9 -5 -16 -11 -16 -5 0 -7 4 -4 10 3 5 1 18 -4 27
-6 10 -11 14 -11 9 0 -5 -8 -2 -17 5 -14 12 -16 12 -9 -1 4 -9 1 -8 -7 3 -18
21 -31 22 -23 1 3 -8 2 -12 -4 -9 -6 3 -10 14 -10 23 0 11 -8 18 -22 19 -13 1
-24 7 -26 13 -2 5 -10 10 -18 10 -8 0 -14 5 -14 10 0 6 -4 10 -10 10 -5 0 -6
-8 -3 -17 6 -15 5 -16 -9 -3 -9 8 -14 18 -11 22 2 4 -2 5 -10 2 -8 -3 -18 -1
-22 5 -3 6 -15 11 -26 11 -11 0 -17 5 -14 10 9 14 -8 13 -23 -2 -9 -9 -12 -8
-12 7 0 15 -2 17 -9 7 -7 -11 -9 -10 -15 3 -4 12 -10 14 -23 6 -12 -7 -21 -5
-31 7 -7 10 -11 11 -7 5 7 -16 -26 -5 -37 11 -5 7 -8 6 -8 -3 0 -11 -4 -10
-13 4 -11 14 -16 15 -22 5 -6 -10 -9 -9 -16 1 -7 12 -9 12 -9 0 0 -10 -6 -10
-26 4 -15 9 -23 12 -20 6 4 -6 2 -11 -3 -11 -6 0 -11 6 -11 13 0 9 -2 9 -8 0
-6 -10 -14 -9 -34 1 -23 12 -27 12 -32 -1 -4 -10 -10 -12 -19 -6 -18 15 -49
24 -42 14 3 -5 0 -13 -6 -17 -8 -4 -9 -3 -5 4 4 7 2 12 -4 12 -6 0 -8 5 -5 10
3 6 2 10 -3 10 -6 0 -12 -6 -15 -13 -6 -15 -42 -16 -54 -2 -5 4 -2 5 6 0 10
-5 12 -4 7 4 -4 6 -13 8 -19 4 -18 -11 -49 -14 -43 -4 3 5 -3 7 -14 4 -11 -3
-17 -10 -13 -17 3 -6 -2 -4 -13 5 -13 11 -25 14 -39 9 -29 -12 -37 -12 -29 1
5 8 1 8 -14 0 -27 -14 -35 -14 -26 2 6 10 4 10 -7 0 -15 -15 -33 -18 -25 -5 3
5 -1 9 -9 9 -8 0 -11 -5 -8 -10 4 -6 0 -8 -10 -4 -9 3 -18 1 -21 -6 -3 -9 -5
-9 -5 1 -1 6 -10 12 -22 12 -13 0 -18 -4 -13 -12 5 -10 4 -10 -6 -1 -7 6 -19
9 -28 6 -11 -5 -13 -2 -7 8 6 11 5 12 -6 2 -15 -15 -33 -18 -25 -5 3 5 -1 9
-9 9 -8 0 -12 -4 -9 -9 3 -4 -2 -8 -11 -8 -9 0 -14 4 -11 8 3 5 -1 9 -9 9 -8
0 -12 -4 -9 -9 8 -13 -20 -9 -35 5 -11 10 -12 9 -6 -2 6 -11 4 -13 -8 -8 -9 3
-18 1 -21 -6 -3 -9 -5 -9 -5 1 -1 6 -10 12 -22 12 -13 0 -18 -4 -13 -12 5 -10
4 -10 -6 -1 -7 6 -19 9 -28 6 -11 -5 -13 -3 -7 8 8 12 6 12 -8 0 -9 -7 -17
-10 -17 -5 0 5 -5 2 -10 -6 -7 -11 -10 -11 -10 -2 0 7 -4 10 -10 7 -5 -3 -10
0 -10 7 0 9 -3 9 -10 -2 -9 -13 -10 -13 -10 0 0 13 -2 13 -9 1 -6 -9 -16 -11
-27 -6 -30 12 -63 14 -70 4 -3 -5 -10 -9 -15 -9 -6 0 -7 5 -3 11 4 7 -1 7 -15
-1 -17 -8 -26 -8 -36 0 -9 8 -15 8 -20 0 -5 -8 -11 -8 -21 1 -11 9 -17 9 -28
0 -10 -8 -16 -9 -21 -1 -4 7 -12 7 -25 0 -13 -7 -21 -7 -25 0 -4 7 -11 7 -18
2 -16 -12 -47 -11 -47 2 0 6 -4 6 -12 -2 -7 -7 -17 -8 -28 -2 -13 7 -22 5 -31
-6 -11 -14 -15 -13 -31 8 -10 13 -16 16 -13 7z m2059 -304 c-4 -8 -11 -15 -16
-15 -6 0 -5 6 2 15 7 8 14 15 16 15 2 0 1 -7 -2 -15z m-1238 -458 c8 3 14 0
14 -6 0 -6 5 -11 11 -11 5 0 8 4 5 9 -3 5 5 9 19 9 15 0 22 -5 18 -12 -3 -6 4
-2 17 9 13 11 20 14 15 6 -6 -10 -2 -12 15 -6 17 6 21 4 15 -6 -5 -8 2 -5 14
5 22 20 22 20 15 0 -7 -17 -6 -18 10 -5 15 13 19 13 26 0 8 -12 11 -12 22 0
11 11 11 13 -1 6 -10 -6 -12 -4 -6 5 6 10 11 10 20 -3 13 -18 30 -24 20 -7 -4
6 2 7 18 1 16 -6 28 -6 36 2 8 8 11 8 11 -1 0 -7 5 -12 11 -12 5 0 7 5 3 11
-4 7 1 7 16 -1 12 -6 28 -9 36 -6 7 3 18 -3 23 -12 9 -15 11 -14 11 8 1 24 2
24 10 4 8 -20 20 -25 97 -36 6 -1 9 -7 6 -15 -3 -7 2 -13 11 -13 10 0 16 -9
17 -22 0 -13 3 -18 5 -11 3 7 12 9 20 6 13 -5 13 -8 2 -15 -9 -7 -6 -8 10 -5
13 3 21 3 18 0 -3 -4 0 -13 7 -22 11 -14 10 -15 -7 -1 -18 14 -19 14 -5 -7 7
-12 15 -20 18 -18 6 6 28 -26 40 -59 9 -21 8 -24 -7 -19 -15 5 -15 4 -2 -8 9
-8 22 -22 29 -32 12 -15 12 -17 -3 -11 -12 5 -15 2 -10 -10 3 -9 10 -14 14
-11 10 6 7 -15 -4 -34 -7 -11 -5 -13 8 -8 11 5 15 3 10 -5 -11 -17 -11 -61 0
-83 5 -11 10 -28 11 -37 1 -15 -1 -16 -14 -5 -13 10 -13 8 1 -14 12 -20 14
-29 5 -38 -8 -8 -7 -11 3 -11 13 0 13 -2 0 -10 -11 -7 -11 -10 -2 -10 7 0 10
-5 7 -10 -4 -6 -12 -8 -18 -4 -7 3 -4 -1 6 -9 14 -11 15 -16 5 -20 -10 -4 -10
-8 2 -16 13 -10 13 -11 0 -11 -13 0 -13 -1 0 -10 13 -9 7 -14 -12 -11 -4 0 -5
-6 -2 -14 4 -8 11 -12 18 -8 6 4 5 -1 -3 -10 -11 -14 -11 -17 0 -17 11 0 11
-2 -1 -10 -11 -7 -11 -10 -2 -10 7 0 10 -5 7 -10 -4 -6 -11 -8 -16 -5 -5 3 -6
-1 -3 -9 3 -9 9 -14 13 -11 4 2 8 -2 8 -10 0 -8 -4 -12 -9 -9 -13 8 -10 -10 5
-25 10 -11 10 -13 0 -7 -7 4 -13 2 -13 -3 0 -6 6 -11 13 -11 9 0 8 -3 -2 -9
-8 -5 -9 -11 -3 -15 11 -7 11 -24 -1 -43 -5 -8 -3 -13 5 -13 8 0 6 -5 -5 -11
-18 -10 -18 -11 0 -32 10 -11 12 -17 4 -12 -11 6 -13 4 -8 -8 4 -12 1 -17 -11
-18 -10 0 -12 -3 -4 -6 14 -6 16 -39 2 -48 -5 -3 -10 -11 -10 -16 0 -6 6 -7
13 -3 8 6 8 3 -2 -9 -7 -9 -11 -23 -7 -32 3 -8 0 -14 -7 -12 -6 1 -13 -8 -15
-20 -2 -13 -11 -23 -20 -24 -14 0 -13 -2 3 -9 12 -5 14 -9 6 -9 -8 -1 -11 -4
-8 -8 4 -3 -1 -12 -11 -19 -15 -12 -15 -15 -2 -25 13 -9 13 -10 -2 -6 -9 3
-19 -1 -22 -10 -4 -9 -13 -13 -23 -9 -14 6 -14 3 3 -15 10 -12 14 -19 7 -16
-6 4 -22 3 -35 -2 -12 -6 -17 -10 -10 -10 7 -1 11 -5 7 -10 -3 -6 -14 -8 -25
-6 -12 2 -18 0 -16 -4 3 -5 -4 -17 -17 -27 -18 -16 -19 -16 -8 -1 19 25 6 21
-20 -5 -12 -13 -18 -16 -14 -8 7 12 6 13 -7 3 -8 -7 -18 -10 -21 -6 -4 3 -7
-1 -7 -10 0 -14 -5 -15 -26 -6 -25 9 -26 8 -13 -7 13 -16 12 -16 -8 -5 -17 9
-23 9 -23 0 0 -8 -4 -8 -15 1 -12 10 -16 9 -21 -5 -6 -15 -8 -15 -16 -2 -5 9
-15 14 -23 11 -8 -4 -13 -9 -10 -13 2 -4 -2 -8 -10 -8 -8 0 -11 5 -8 11 4 6
-1 5 -10 -3 -9 -7 -17 -9 -17 -3 0 5 -7 13 -16 16 -13 5 -14 3 -6 -6 8 -10 4
-13 -14 -14 -14 -1 -21 2 -18 8 4 6 -6 2 -22 -8 -22 -14 -26 -15 -17 -3 10 13
10 16 -2 16 -8 0 -15 -4 -15 -9 0 -4 -5 -8 -11 -8 -5 0 -8 4 -5 8 3 5 -1 9 -9
9 -8 0 -12 -4 -9 -8 2 -4 -10 -6 -28 -5 -18 2 -46 -1 -61 -5 -26 -7 -27 -6
-16 9 7 9 9 14 5 10 -5 -4 -16 -2 -24 5 -10 8 -13 8 -9 1 4 -7 0 -15 -9 -18
-10 -4 -13 -2 -8 7 6 9 5 9 -7 1 -11 -9 -17 -9 -26 1 -6 7 -9 16 -6 19 4 3 0
6 -8 6 -11 0 -11 2 1 10 8 5 10 10 4 10 -6 0 -11 7 -11 15 0 8 5 15 10 15 5 0
2 10 -6 23 -11 17 -12 28 -5 38 7 11 8 9 3 -6 -4 -14 -3 -17 5 -9 12 12 4 44
-11 44 -5 0 -9 5 -9 11 0 5 5 7 10 4 14 -9 12 8 -2 24 -10 11 -10 13 0 7 7 -5
12 -1 12 9 0 10 -5 14 -12 10 -7 -4 -5 0 5 8 18 15 13 52 -6 40 -6 -4 -7 -1
-1 8 11 16 14 90 4 84 -4 -2 -7 2 -7 10 0 8 4 12 8 9 10 -6 6 68 -5 85 -7 11
-5 13 5 9 19 -7 18 34 -2 58 -8 11 -9 15 -2 10 10 -5 12 3 9 34 -2 22 0 38 5
34 17 -10 9 5 -13 26 -17 16 -18 19 -5 15 20 -8 23 5 5 24 -11 11 -10 12 1 6
11 -6 13 -3 9 13 -4 12 -2 24 3 27 4 3 6 12 3 20 -4 8 -10 12 -15 9 -5 -3 -4
7 1 21 13 34 13 37 -2 30 -7 -4 -5 0 5 8 21 18 22 28 1 20 -14 -5 -14 -3 -2
17 10 18 10 24 1 27 -10 3 -9 8 3 20 13 14 13 17 -3 36 -10 12 -12 17 -4 12
11 -6 13 -4 8 8 -4 10 -1 17 6 18 7 0 3 4 -8 9 -11 5 -15 9 -9 9 7 1 15 8 18
17 3 8 2 12 -4 9 -14 -9 -12 9 3 24 10 10 8 11 -8 6 -19 -6 -19 -6 -2 8 21 18
22 28 2 21 -11 -5 -13 -2 -9 10 3 9 11 13 18 9 6 -4 6 0 -2 9 -8 10 -9 18 -3
22 6 4 8 13 5 21 -4 8 -11 12 -16 9 -6 -4 -5 3 1 15 7 11 8 21 4 21 -4 0 -2 5
4 11 14 14 5 42 -10 32 -6 -3 -3 4 6 16 16 24 13 56 -5 45 -6 -4 -4 4 4 17 8
13 13 36 12 52 0 15 3 27 7 27 5 0 9 -5 9 -11 0 -5 5 -7 10 -4 6 4 7 11 4 17
-4 6 1 6 14 -1 15 -8 23 -7 33 5 8 9 16 11 22 5 5 -5 16 -7 23 -4z m454 -11
c0 -3 -4 -8 -10 -11 -5 -3 -10 -1 -10 4 0 6 5 11 10 11 6 0 10 -2 10 -4z
m-585 -45 c3 -5 2 -12 -3 -15 -5 -3 -9 1 -9 9 0 17 3 19 12 6z m1415 -1736 c9
-10 9 -15 1 -15 -6 0 -11 5 -11 11 0 8 -5 7 -15 -1 -13 -11 -14 -10 -9 4 8 20
18 20 34 1z m81 -32 c13 -16 12 -17 -3 -4 -10 7 -18 15 -18 17 0 8 8 3 21 -13z
m-1393 -328 c27 11 72 13 66 4 -3 -5 0 -9 5 -9 6 0 11 6 12 13 0 10 2 10 6 0
2 -7 9 -13 14 -13 6 0 7 6 3 13 -6 9 -4 9 8 -1 12 -9 18 -10 23 -2 5 8 10 8
20 0 9 -8 15 -8 20 0 3 5 12 10 18 10 7 0 6 -4 -3 -11 -12 -8 -10 -9 10 -7 14
2 28 8 32 13 5 6 8 6 8 -2 0 -8 20 -11 60 -9 33 1 60 -2 60 -6 0 -5 -5 -6 -12
-2 -7 4 -8 3 -4 -4 5 -9 12 -9 26 0 10 7 16 16 13 22 -3 5 -1 6 5 2 6 -4 9
-12 6 -20 -3 -7 2 -13 10 -13 8 0 13 4 11 8 -3 4 2 6 11 5 8 -1 19 -8 23 -15
6 -10 10 -9 14 4 6 13 10 14 29 3 13 -7 30 -11 37 -9 12 2 12 0 3 -11 -10 -12
-6 -14 25 -13 26 0 37 -4 40 -16 3 -10 12 -20 20 -24 12 -4 13 -2 7 8 -5 7 2
1 15 -13 13 -14 20 -18 15 -10 -7 13 -5 13 9 1 9 -7 17 -20 17 -27 0 -13 13
-19 35 -14 6 1 4 -4 -2 -11 -15 -15 -17 -33 -4 -25 5 3 15 -2 22 -11 10 -11
10 -14 2 -9 -9 5 -11 2 -7 -8 3 -9 11 -13 17 -9 6 4 8 0 4 -10 -3 -10 -2 -17
3 -17 6 0 10 -7 10 -15 0 -7 8 -19 18 -25 16 -11 16 -11 -2 -6 -15 5 -17 4 -8
-7 9 -10 8 -17 -1 -26 -9 -10 -8 -11 8 -5 18 7 19 6 6 -10 -8 -9 -10 -16 -5
-15 21 4 26 -2 14 -16 -10 -12 -10 -15 0 -15 8 0 10 -3 7 -7 -4 -3 -2 -12 4
-20 9 -10 8 -13 -5 -13 -9 0 -16 -4 -16 -9 0 -6 9 -8 20 -6 17 3 18 1 8 -15
-9 -14 -9 -22 3 -36 9 -11 9 -15 2 -10 -8 4 -13 1 -13 -8 0 -9 5 -16 10 -16 6
0 10 -5 10 -11 0 -5 -6 -7 -12 -3 -9 5 -9 2 1 -9 11 -14 11 -17 0 -18 -11 0
-11 -2 -1 -6 10 -4 10 -8 1 -19 -9 -11 -8 -14 2 -14 11 0 11 -2 -1 -10 -11 -7
-11 -10 -2 -10 9 0 10 -5 2 -19 -7 -14 -7 -22 1 -27 8 -4 7 -9 -2 -15 -12 -7
-12 -9 0 -9 11 0 11 -3 0 -17 -10 -11 -10 -14 -1 -9 6 4 12 3 12 -3 0 -5 -5
-13 -11 -16 -7 -5 -5 -13 6 -25 11 -12 13 -20 5 -25 -5 -3 -8 -11 -5 -16 4 -5
0 -9 -7 -9 -9 0 -9 -3 2 -10 13 -9 13 -10 0 -10 -9 0 -11 -3 -5 -8 13 -9 19
-46 7 -38 -12 7 -10 -13 1 -31 5 -8 3 -13 -5 -13 -9 0 -9 -3 -2 -8 14 -9 14
-42 0 -42 -5 0 -2 -6 9 -13 14 -11 15 -16 5 -22 -9 -6 -11 -4 -5 5 5 9 4 11
-4 6 -6 -4 -8 -13 -4 -19 12 -20 12 -37 0 -37 -7 0 -5 -5 3 -10 13 -9 13 -10
0 -10 -9 0 -11 -3 -5 -8 12 -9 20 -46 8 -39 -5 3 -9 -5 -9 -19 0 -13 4 -24 9
-24 5 0 3 -8 -4 -17 -8 -9 -9 -14 -2 -10 12 7 12 -17 0 -29 -4 -4 -2 -13 5
-21 9 -11 7 -12 -8 -6 -17 6 -18 5 -4 -12 8 -10 10 -16 4 -12 -7 4 -14 -2 -17
-14 -4 -15 -2 -18 7 -10 8 7 12 5 12 -8 0 -12 -5 -17 -14 -13 -12 4 -12 1 -2
-18 9 -18 9 -21 0 -15 -10 6 -12 1 -8 -19 3 -14 1 -29 -5 -33 -6 -3 -7 -1 -3
5 4 7 2 12 -5 12 -7 0 -9 -8 -6 -21 4 -14 2 -19 -7 -16 -7 3 -13 -1 -13 -9 0
-7 5 -10 11 -7 6 3 2 -3 -9 -14 -11 -11 -24 -18 -30 -16 -5 2 -1 -3 9 -11 20
-16 20 -16 0 -17 -10 -1 -22 -1 -25 -1 -4 1 -6 -6 -5 -16 0 -9 -5 -17 -13 -17
-8 0 -16 -6 -19 -14 -3 -9 0 -11 8 -6 8 5 11 4 7 -3 -4 -5 -17 -8 -29 -4 -16
4 -19 2 -13 -8 6 -10 2 -12 -18 -8 -17 3 -24 1 -21 -7 4 -9 -3 -11 -22 -7 -20
4 -25 2 -19 -8 4 -7 -3 -5 -18 4 -20 14 -27 14 -38 4 -14 -13 -111 -19 -103
-7 8 14 -26 18 -38 5 -11 -11 -15 -11 -24 2 -9 12 -13 12 -19 2 -5 -9 -4 -11
3 -6 7 4 12 2 12 -4 0 -7 -8 -9 -21 -5 -16 5 -19 4 -14 -5 6 -10 4 -11 -6 -4
-8 5 -17 9 -21 9 -3 0 -10 4 -15 9 -5 5 -2 6 6 1 10 -5 12 -4 7 4 -10 16 -29
3 -22 -16 3 -8 1 -11 -4 -8 -6 3 -10 0 -11 -7 0 -10 -2 -11 -6 0 -4 10 -8 10
-21 0 -13 -11 -15 -10 -9 4 4 12 2 15 -8 11 -8 -3 -12 -9 -9 -14 10 -16 -9 -9
-22 9 -10 12 -13 13 -9 2 4 -11 -1 -16 -15 -17 -13 -1 -18 2 -14 10 5 9 4 9
-6 0 -7 -6 -19 -9 -28 -6 -10 4 -13 2 -8 -5 3 -6 1 -14 -5 -18 -7 -4 -9 -3 -5
4 11 19 -13 24 -44 8 -17 -8 -28 -10 -25 -5 4 5 0 9 -7 10 -7 1 -22 2 -33 3
-11 0 -23 -3 -27 -9 -5 -6 -12 -5 -20 4 -10 10 -10 12 0 7 6 -4 12 -2 12 3 0
6 -7 11 -15 11 -12 0 -14 4 -5 19 8 16 6 22 -7 30 -12 7 -13 10 -4 11 7 0 11
6 8 14 -3 8 -1 17 6 20 7 2 3 5 -7 5 -20 1 -20 1 0 16 19 15 19 15 -1 8 -16
-5 -18 -4 -9 8 12 15 15 49 4 49 -4 0 -7 7 -7 15 0 10 4 12 11 5 11 -8 12 2 7
53 -1 5 -6 5 -13 1 -6 -4 -4 3 5 16 12 17 13 28 6 42 -5 10 -7 18 -3 18 3 0 0
8 -7 17 -11 13 -11 15 -1 9 11 -7 12 0 7 30 -8 43 -8 44 0 97 4 30 3 37 -7 31
-9 -5 -8 -2 1 10 13 15 13 19 0 27 -10 6 -10 9 -1 9 6 0 12 5 12 11 0 5 -5 7
-11 4 -6 -4 -5 3 3 14 11 18 11 23 -2 31 -13 8 -8 14 10 12 5 0 5 20 1 61 -1
5 -5 6 -9 3 -5 -3 -9 1 -9 9 0 8 4 12 8 10 4 -3 10 2 13 11 3 8 2 12 -4 9 -14
-9 -12 9 3 24 10 10 8 11 -8 6 -19 -6 -19 -6 -2 8 18 15 24 32 7 22 -7 -4 -8
3 -4 21 6 21 4 25 -7 19 -11 -6 -12 -5 -2 5 10 11 10 17 0 29 -9 12 -9 13 1 7
7 -4 12 -1 12 9 0 10 -5 13 -12 9 -9 -6 -9 -3 0 9 14 17 24 79 11 71 -4 -2 -9
3 -13 11 -3 8 0 17 6 21 7 5 8 2 3 -6 -5 -9 -4 -11 4 -6 6 4 8 13 4 19 -14 22
-14 49 -1 41 7 -4 4 3 -7 16 -11 13 -15 20 -9 17 15 -9 27 20 12 29 -7 5 -8 2
-3 -6 5 -9 4 -11 -4 -6 -9 6 -9 11 -1 21 7 8 9 19 6 24 -4 5 -2 12 3 16 6 3 8
12 5 20 -4 8 -10 12 -15 9 -10 -6 0 25 14 44 7 9 5 11 -9 5 -15 -5 -17 -4 -8
8 16 21 17 72 1 63 -9 -5 -9 -4 0 6 10 11 10 17 0 29 -9 12 -9 13 1 7 7 -4 12
-1 12 9 0 9 -5 13 -11 10 -6 -4 -5 3 3 15 10 18 10 24 0 27 -6 3 -9 9 -6 14 3
6 12 5 22 -3 14 -10 15 -10 5 2 -7 8 -13 20 -13 28 0 8 5 10 13 6 6 -4 3 2 -7
14 -13 15 -15 22 -6 22 10 0 10 3 0 15 -7 9 -8 15 -2 15 11 0 11 18 -1 38 -5
7 -3 12 3 12 6 0 9 4 6 8 -2 4 -1 14 5 22 6 10 9 11 9 3 0 -7 7 -13 16 -13 9
0 12 5 8 13 -5 8 -2 8 9 -2 15 -12 17 -11 18 5 1 18 2 18 6 1 3 -13 10 -16 21
-12z m-901 -111 c-3 -3 -12 -4 -19 -1 -8 3 -5 6 6 6 11 1 17 -2 13 -5z m1427
-1482 c3 -5 -1 -9 -9 -9 -8 0 -12 4 -9 9 3 4 7 8 9 8 2 0 6 -4 9 -8z m1066
-16 c0 -11 -19 -15 -25 -6 -3 5 1 10 9 10 9 0 16 -2 16 -4z m-210 -380 c0 -2
-8 -10 -17 -17 -16 -13 -17 -12 -4 4 13 16 21 21 21 13z"/>
<path d="M1175 5110 c-3 -5 -1 -10 4 -10 6 0 11 5 11 10 0 6 -2 10 -4 10 -3 0
-8 -4 -11 -10z"/>
<path d="M1650 1379 c0 -5 5 -7 10 -4 6 3 10 8 10 11 0 2 -4 4 -10 4 -5 0 -10
-5 -10 -11z"/>
<path d="M3604 5870 c-3 -3 -24 -6 -47 -6 -70 -2 -77 -4 -77 -15 0 -5 4 -8 8
-5 4 2 8 -4 8 -14 0 -15 -3 -17 -15 -7 -12 10 -13 9 -2 -10 8 -16 8 -23 1 -23
-6 0 -4 -7 5 -16 12 -12 13 -19 4 -30 -6 -8 -8 -14 -4 -14 4 0 1 -8 -6 -17
-12 -15 -12 -16 5 -9 20 7 20 7 0 -15 -19 -22 -19 -22 0 -15 19 7 19 6 1 -14
-20 -22 -8 -28 15 -7 10 8 9 5 -1 -8 -19 -24 -32 -58 -20 -51 5 3 12 -1 15
-10 3 -8 2 -12 -3 -9 -5 3 -12 1 -16 -5 -3 -5 -2 -10 3 -10 6 0 13 -7 16 -16
3 -8 2 -13 -3 -10 -5 3 -12 -1 -15 -10 -3 -8 -2 -13 3 -10 5 3 12 -1 15 -10 3
-8 2 -12 -3 -9 -5 3 -12 1 -16 -5 -3 -5 -2 -10 3 -10 6 0 13 -7 16 -16 3 -8 2
-13 -3 -10 -5 3 -12 -1 -15 -9 -3 -9 1 -18 9 -22 13 -5 13 -7 -2 -20 -10 -8
-13 -12 -7 -9 7 3 15 -1 18 -10 3 -8 2 -13 -3 -10 -5 3 -12 -1 -15 -9 -3 -9 1
-18 9 -22 13 -5 13 -7 -2 -20 -10 -8 -12 -12 -5 -8 6 3 12 3 13 -2 0 -4 2 -16
4 -26 2 -9 -1 -15 -5 -12 -5 3 -11 1 -15 -5 -3 -5 -1 -10 6 -10 8 0 7 -5 -2
-16 -12 -15 -11 -16 11 -10 20 6 22 5 8 -4 -10 -6 -15 -17 -11 -27 5 -12 3
-14 -8 -8 -12 8 -12 6 0 -8 7 -9 10 -17 7 -17 -4 0 -1 -10 5 -22 12 -22 11
-22 -6 -8 -17 14 -17 14 -7 -6 8 -16 8 -24 -1 -34 -8 -9 -8 -11 -1 -7 7 4 15
0 18 -9 9 -24 7 -31 -4 -14 -9 13 -10 13 -10 0 0 -9 6 -22 13 -29 8 -10 8 -12
0 -7 -6 3 -14 2 -18 -4 -3 -5 -1 -10 6 -10 8 0 7 -5 -2 -16 -12 -15 -11 -16
11 -10 20 6 22 5 8 -4 -10 -6 -15 -17 -11 -27 5 -12 3 -14 -8 -8 -12 8 -12 6
0 -8 7 -9 10 -17 7 -17 -4 0 -1 -10 5 -22 12 -22 11 -22 -6 -8 -17 14 -17 14
-7 -6 8 -16 8 -24 -1 -34 -8 -9 -8 -11 -1 -7 16 9 25 -18 11 -32 -6 -6 -7 -11
-3 -11 5 0 2 -8 -5 -17 -12 -15 -12 -16 5 -9 20 7 20 7 0 -15 -19 -22 -19 -22
0 -15 19 6 19 6 3 -11 -14 -17 -15 -22 -2 -46 8 -15 10 -25 5 -22 -5 3 -11 1
-15 -5 -3 -5 -1 -10 6 -10 8 0 7 -5 -2 -17 -8 -9 -9 -14 -3 -10 7 4 14 0 18
-8 3 -8 2 -14 -2 -14 -19 3 -26 -2 -13 -10 10 -7 11 -13 1 -31 -7 -12 -8 -20
-2 -16 5 3 13 -1 16 -10 3 -8 2 -12 -3 -9 -5 3 -12 1 -16 -5 -3 -5 -2 -10 3
-10 6 0 13 -7 16 -16 3 -8 2 -13 -3 -10 -5 3 -12 -1 -15 -10 -3 -8 -2 -13 3
-10 5 3 12 -1 15 -10 3 -8 2 -12 -3 -9 -5 3 -12 1 -16 -5 -3 -5 -2 -10 3 -10
6 0 13 -7 16 -16 3 -8 2 -13 -3 -10 -5 3 -12 -1 -15 -10 -3 -8 -2 -13 3 -10 5
3 11 -1 15 -9 3 -8 2 -14 -2 -14 -19 3 -22 -3 -7 -17 15 -15 15 -18 -1 -41 -9
-14 -12 -23 -6 -19 5 3 13 -1 16 -10 9 -24 7 -31 -4 -14 -9 13 -10 13 -10 -1
0 -8 6 -21 13 -28 8 -10 8 -12 0 -7 -6 3 -14 2 -18 -4 -3 -5 -1 -10 6 -10 8 0
7 -5 -2 -16 -12 -15 -11 -16 11 -10 20 6 22 5 8 -4 -10 -6 -15 -17 -11 -27 5
-12 3 -14 -8 -8 -12 8 -12 6 0 -8 7 -9 10 -17 7 -17 -4 0 -2 -8 3 -18 7 -14 6
-25 -6 -42 -9 -13 -11 -20 -5 -16 16 10 15 -6 0 -23 -11 -11 -10 -12 0 -6 16
8 13 -26 -3 -37 -6 -5 -5 -8 3 -8 6 0 12 -7 12 -16 0 -9 -5 -12 -12 -8 -9 5
-9 2 1 -9 7 -9 10 -17 7 -17 -4 0 -1 -10 5 -22 12 -22 11 -22 -6 -8 -17 14
-18 14 -6 -7 9 -18 9 -23 -1 -23 -10 0 -9 -3 1 -9 13 -8 13 -12 0 -27 -9 -11
-9 -15 -1 -10 6 4 12 2 12 -3 0 -6 -5 -11 -11 -11 -6 0 -3 -7 5 -16 21 -20 20
-25 -1 -17 -16 6 -16 5 -4 -10 11 -14 11 -17 0 -17 -8 0 -6 -5 6 -13 14 -11
15 -16 5 -22 -9 -6 -11 -4 -5 5 5 9 4 11 -4 6 -8 -5 -9 -12 -2 -19 14 -18 14
-29 -1 -38 -10 -7 -10 -9 0 -9 6 0 12 -7 12 -16 0 -9 -5 -12 -12 -8 -9 5 -9 2
1 -9 7 -9 10 -17 7 -17 -4 0 -1 -10 5 -22 12 -22 11 -22 -6 -8 -17 14 -18 14
-6 -7 9 -18 9 -23 -1 -23 -10 0 -9 -3 1 -9 13 -8 13 -12 0 -27 -9 -11 -9 -15
-1 -10 6 4 12 2 12 -3 0 -6 -5 -11 -11 -11 -6 0 -3 -7 5 -16 21 -20 20 -25 -1
-17 -16 6 -16 5 -4 -10 11 -14 11 -17 0 -17 -8 0 -6 -5 6 -13 14 -11 15 -16 5
-22 -9 -6 -11 -4 -5 5 5 9 4 11 -4 6 -8 -6 -9 -12 -2 -20 7 -9 7 -17 -2 -26
-9 -10 -9 -11 1 -6 14 8 16 -3 3 -24 -6 -8 -7 -19 -3 -25 11 -18 11 -35 -1
-35 -8 0 -7 -3 1 -9 8 -4 14 -12 14 -16 0 -4 -6 -12 -14 -16 -10 -7 -10 -9 0
-9 6 0 12 -7 12 -16 0 -9 -5 -12 -12 -8 -10 5 -10 4 -1 -6 10 -11 10 -17 0
-29 -8 -10 -8 -12 -1 -8 7 4 15 0 18 -9 4 -10 2 -13 -6 -8 -8 5 -9 2 -5 -9 4
-10 1 -17 -5 -17 -7 0 -4 -6 7 -13 14 -11 15 -16 5 -22 -9 -6 -11 -4 -5 5 5 9
4 11 -4 6 -8 -6 -9 -12 -2 -20 7 -9 7 -16 0 -23 -8 -8 -7 -13 2 -18 8 -6 10
-4 4 5 -5 9 -4 11 4 6 9 -6 9 -11 0 -22 -6 -8 -8 -14 -3 -14 5 0 2 -5 -6 -10
-13 -8 -12 -10 3 -10 9 0 17 -5 17 -11 0 -5 -4 -8 -9 -5 -5 3 -12 -1 -15 -10
-4 -12 -2 -15 9 -10 13 5 13 2 -1 -19 -10 -15 -12 -25 -5 -25 6 0 11 5 11 12
0 6 3 8 7 5 3 -4 -2 -15 -11 -26 -13 -14 -14 -21 -5 -27 8 -5 10 -3 4 6 -6 9
-4 11 4 6 9 -6 8 -13 -6 -29 -10 -11 -13 -17 -7 -14 7 4 15 0 18 -9 3 -8 2
-13 -3 -10 -5 3 -12 -1 -15 -10 -3 -8 -2 -13 3 -10 5 3 11 -1 15 -9 3 -8 2
-14 -2 -14 -19 3 -22 -3 -7 -17 15 -15 15 -18 -2 -37 -17 -20 -17 -20 1 -13
20 7 20 7 0 -15 -19 -22 -19 -22 0 -15 19 7 19 6 1 -14 -20 -22 -8 -28 15 -7
8 6 7 3 -3 -9 -19 -23 -23 -39 -7 -29 15 9 12 -2 -6 -19 -8 -9 -11 -16 -6 -16
12 0 10 -19 -2 -39 -6 -9 -5 -12 1 -8 18 11 22 -19 7 -48 -13 -25 -12 -27 3
-21 14 6 14 3 -3 -15 -17 -20 -17 -22 -1 -16 21 8 22 0 2 -20 -12 -12 -13 -18
-4 -29 6 -8 8 -14 5 -14 -4 0 -2 -8 3 -18 7 -14 6 -25 -6 -42 -9 -13 -12 -20
-6 -17 6 4 14 0 17 -9 9 -24 7 -31 -4 -14 -9 13 -10 13 -10 0 0 -9 6 -22 13
-29 8 -10 8 -12 0 -7 -6 3 -14 2 -18 -4 -3 -5 -1 -10 6 -10 8 0 7 -5 -2 -16
-12 -15 -11 -16 11 -9 l25 8 -23 -19 c-21 -18 -21 -21 -7 -47 8 -15 10 -25 5
-22 -5 3 -11 1 -15 -5 -3 -5 -1 -10 6 -10 8 0 7 -5 -2 -17 -8 -9 -9 -14 -3
-10 7 4 15 0 18 -9 3 -8 2 -13 -3 -10 -5 3 -12 -1 -15 -10 -3 -8 -2 -13 3 -10
5 3 12 -1 15 -10 3 -8 2 -13 -3 -10 -5 3 -12 -1 -15 -9 -3 -9 1 -18 9 -22 13
-5 13 -7 -2 -20 -10 -8 -13 -12 -7 -9 7 3 15 -1 18 -10 3 -8 2 -13 -3 -10 -5
3 -12 -1 -15 -9 -3 -9 1 -18 9 -22 13 -5 13 -7 -2 -20 -10 -8 -13 -12 -7 -9 7
3 15 -1 18 -10 3 -8 2 -13 -3 -10 -5 3 -12 -1 -15 -9 -3 -9 1 -18 9 -22 13 -5
13 -7 -2 -20 -10 -8 -13 -12 -7 -9 7 3 15 -1 18 -10 3 -8 2 -13 -3 -10 -5 3
-12 -1 -15 -10 -5 -12 -2 -15 9 -10 14 5 14 3 1 -15 -15 -22 -11 -53 5 -43 5
3 6 -2 3 -10 -3 -9 -11 -16 -18 -16 -7 0 -6 -4 2 -9 8 -4 14 -12 14 -16 0 -4
-6 -12 -14 -16 -10 -7 -10 -9 2 -9 13 0 13 -1 0 -10 -12 -8 -12 -10 5 -11 11
0 14 -3 8 -6 -7 -2 -13 -9 -13 -14 0 -6 4 -8 8 -5 5 3 9 -1 9 -9 0 -8 -4 -12
-8 -9 -4 2 -10 0 -14 -6 -3 -5 -1 -10 6 -10 8 0 7 -5 -2 -17 -10 -11 -10 -14
-1 -9 15 9 15 1 2 -24 -7 -13 -7 -21 0 -25 8 -5 7 -12 -2 -23 -10 -12 -10 -14
0 -8 14 8 16 -3 3 -24 -6 -8 -7 -19 -3 -25 11 -18 11 -35 -1 -36 -7 0 -3 -4 8
-9 11 -5 14 -9 7 -9 -7 -1 -10 -5 -7 -11 3 -5 0 -10 -7 -10 -10 0 -9 -3 1 -9
13 -8 13 -12 0 -27 -9 -11 -9 -15 -1 -10 6 4 12 3 12 -1 0 -5 -6 -15 -12 -22
-8 -9 -8 -11 -2 -8 7 4 15 0 18 -9 4 -10 2 -13 -6 -8 -8 5 -9 2 -5 -9 4 -10 1
-17 -5 -17 -7 0 -4 -6 7 -13 14 -11 15 -16 5 -22 -9 -6 -11 -4 -5 5 5 9 4 11
-4 6 -8 -6 -9 -12 -2 -20 7 -9 7 -16 0 -23 -8 -8 -7 -13 2 -18 8 -6 10 -4 4 5
-5 9 -4 11 4 6 9 -6 9 -11 0 -22 -6 -8 -8 -14 -3 -14 5 0 2 -5 -6 -10 -13 -8
-12 -10 3 -10 9 0 17 -5 17 -11 0 -5 -4 -8 -9 -5 -5 3 -12 -1 -15 -10 -5 -12
-2 -15 10 -10 14 5 15 4 5 -8 -9 -10 -9 -16 -1 -21 8 -5 6 -13 -5 -25 -12 -14
-13 -20 -4 -26 8 -5 10 -3 4 6 -5 9 -4 11 4 6 9 -6 9 -11 0 -22 -6 -8 -8 -14
-3 -14 5 0 2 -5 -6 -10 -13 -8 -12 -10 3 -10 9 0 17 -5 17 -11 0 -5 -4 -8 -9
-5 -5 3 -12 -1 -15 -10 -3 -8 -2 -12 4 -9 13 8 13 -1 0 -26 -7 -11 -7 -19 -1
-19 5 0 12 6 14 13 4 9 6 9 6 0 1 -6 -4 -15 -9 -18 -7 -4 -6 -14 2 -28 10 -21
10 -21 -7 -7 -17 14 -18 14 -6 -7 9 -18 9 -23 -1 -23 -6 0 -4 -6 7 -13 14 -11
15 -16 5 -22 -9 -6 -11 -4 -5 5 6 9 4 11 -4 6 -9 -6 -8 -12 4 -26 12 -14 13
-20 4 -26 -8 -5 -10 -3 -4 6 5 9 4 11 -4 6 -9 -6 -9 -11 -1 -21 7 -9 8 -15 1
-20 -7 -4 -6 -14 4 -29 8 -12 12 -26 8 -29 -3 -4 -2 -7 4 -7 5 0 13 3 17 7 3
4 14 8 22 9 11 2 14 -3 9 -14 -5 -14 -4 -14 6 -5 10 10 16 10 28 0 12 -10 13
-9 6 2 -6 11 -4 13 7 8 9 -3 21 0 28 6 10 9 11 9 6 0 -4 -8 2 -11 21 -9 16 2
28 5 28 6 0 1 8 3 18 5 14 3 17 -1 12 -13 -5 -14 -4 -14 6 -5 10 10 16 10 28
0 12 -10 13 -9 6 2 -6 11 -4 13 7 8 9 -3 21 0 28 6 10 9 11 9 6 0 -8 -15 33
-14 53 1 12 9 13 8 7 -3 -7 -10 -3 -12 15 -6 57 18 55 18 39 6 -12 -9 -11 -11
8 -11 13 0 21 4 18 8 -3 5 2 9 10 9 9 0 13 -6 9 -15 -4 -11 -2 -12 8 -4 10 9
17 8 27 -1 10 -9 11 -9 6 1 -4 6 -3 12 1 12 5 0 15 -6 22 -12 11 -11 12 -10 6
1 -6 10 -4 13 7 8 9 -3 21 0 28 6 10 9 11 9 6 0 -9 -17 6 -17 23 -1 10 10 12
10 7 1 -5 -9 4 -11 34 -8 22 2 38 0 35 -5 -7 -11 22 -7 32 5 4 4 2 5 -4 1 -7
-4 -13 -2 -13 3 0 14 17 14 25 1 4 -6 12 -7 18 -3 17 10 67 11 61 1 -3 -5 7
-6 23 -4 15 3 29 10 31 16 2 5 9 7 14 4 7 -5 8 -2 2 7 -5 8 -9 22 -10 32 -3
35 -4 38 -12 33 -5 -3 -9 1 -9 9 0 8 4 12 8 10 4 -3 9 2 13 10 3 8 0 17 -6 21
-7 5 -8 2 -3 -7 5 -8 4 -10 0 -6 -11 10 -16 39 -5 32 4 -2 8 6 8 20 0 14 -4
22 -9 19 -5 -3 -6 2 -3 10 3 9 10 14 14 11 5 -3 7 2 6 11 -1 8 -9 20 -17 25
-10 6 -10 9 -1 9 6 0 12 5 12 11 0 5 -4 8 -9 5 -13 -9 -7 19 8 38 12 14 12 16
-1 11 -10 -4 -14 2 -14 20 0 14 4 25 9 25 4 0 5 6 0 13 -13 22 -12 39 3 33 18
-7 18 -1 -2 18 -8 9 -11 16 -5 16 6 0 11 5 11 11 0 5 -4 8 -9 5 -5 -4 -8 1 -7
10 1 8 9 20 17 25 11 7 11 9 -4 9 -15 0 -15 3 -5 20 11 17 10 22 -2 30 -11 7
-11 10 -2 10 8 0 10 5 5 13 -14 22 -11 78 4 73 17 -7 16 -1 -3 18 -12 12 -12
16 -2 16 10 0 9 3 -2 10 -12 8 -12 10 5 11 l20 0 -20 9 c-11 5 -14 9 -7 9 8 1
10 6 5 14 -10 16 -11 187 -1 187 5 0 8 5 8 11 0 5 -4 8 -8 5 -4 -2 -8 11 -8
30 0 19 4 34 8 34 11 0 6 23 -7 32 -6 5 -5 8 4 8 10 0 11 4 3 12 -17 21 -17
24 -3 41 11 14 11 17 0 18 -8 0 -5 4 6 9 l20 9 -20 0 c-17 1 -17 3 -5 11 13 9
13 10 0 10 -12 0 -12 2 -1 9 8 5 9 11 3 15 -11 7 -11 24 1 44 5 6 4 12 -1 12
-5 0 -9 7 -9 15 0 11 4 12 14 4 18 -16 16 -4 -3 15 -9 9 -11 16 -4 16 6 0 8 5
3 13 -4 6 -9 20 -10 31 -3 16 -1 17 14 5 17 -13 17 -13 3 5 -21 27 -22 49 -2
42 13 -5 12 -2 -2 9 -11 8 -14 15 -8 15 7 0 12 5 12 11 0 5 -4 8 -8 5 -4 -2
-8 6 -8 20 0 18 4 23 16 19 9 -3 8 0 -4 10 -11 8 -14 15 -8 15 14 0 12 21 -3
32 -6 5 -5 8 3 8 8 0 10 5 5 13 -11 17 -11 77 0 84 5 3 3 9 -4 14 -10 6 -11 9
-1 9 6 0 12 5 12 11 0 5 -4 8 -8 5 -4 -2 -8 11 -8 30 0 19 4 34 9 34 6 0 6 5
0 12 -13 18 -10 37 7 48 13 8 12 10 -3 10 -14 0 -16 4 -7 19 7 14 6 21 -3 24
-9 4 -9 6 1 6 6 1 12 6 12 12 0 5 -4 8 -9 5 -5 -4 -8 1 -7 10 1 8 9 20 17 25
11 7 10 9 -5 9 -16 0 -17 2 -5 17 12 15 12 16 -1 8 -13 -8 -13 -7 -1 8 11 14
11 17 0 17 -8 0 -5 6 7 15 13 10 14 13 3 10 -12 -5 -15 1 -15 27 1 18 8 39 16
46 11 9 12 12 1 10 -7 -2 -15 5 -16 15 -2 9 1 15 6 11 5 -3 9 0 9 5 0 6 -4 11
-8 11 -4 0 -8 9 -9 20 -1 11 2 18 7 15 4 -3 7 3 5 12 -2 10 -4 18 -5 18 -1 0
-3 8 -5 18 -2 12 1 17 9 14 7 -3 13 1 13 9 0 7 -5 11 -11 8 -6 -3 -3 1 6 9 10
8 14 18 10 22 -4 4 3 5 16 2 12 -3 20 -1 16 4 -3 5 0 9 5 9 6 0 11 -4 11 -10
0 -5 5 -10 11 -10 5 0 7 5 3 12 -4 6 -3 8 4 4 6 -3 14 -2 17 4 5 8 11 7 21 -1
8 -6 14 -8 14 -4 0 4 7 2 15 -5 12 -10 15 -10 15 1 0 8 6 5 15 -7 14 -18 15
-18 8 0 -4 14 -2 17 8 14 8 -3 13 -12 11 -19 -1 -8 4 -5 13 5 8 11 15 14 15 7
0 -7 5 -9 10 -6 6 4 7 11 4 17 -4 7 -2 8 5 4 6 -4 9 -11 6 -16 -3 -4 4 -10 15
-13 11 -3 18 -1 14 4 -8 14 9 10 36 -8 25 -16 25 -16 7 4 -14 16 -15 20 -2 20
8 0 15 -5 15 -10 0 -5 8 -3 17 4 15 12 16 12 10 -3 -4 -12 -2 -15 9 -11 8 3
22 -1 31 -8 12 -10 15 -10 9 -1 -4 7 -1 12 8 12 9 0 16 -4 16 -10 0 -5 5 -10
11 -10 5 0 7 6 3 13 -6 10 -4 10 7 0 7 -7 24 -13 37 -13 13 0 20 -4 17 -10 -3
-5 -1 -10 4 -10 6 0 11 5 11 10 0 6 6 5 14 -2 10 -10 11 -15 2 -21 -7 -6 -4
-7 7 -3 10 3 25 -1 33 -9 18 -18 38 -20 28 -3 -4 7 -3 8 4 4 6 -4 9 -13 5 -21
-5 -13 12 -20 39 -16 4 0 4 -7 1 -16 -5 -12 -3 -14 8 -8 11 7 11 5 -1 -10 -8
-10 -10 -16 -5 -13 6 3 16 0 23 -8 7 -8 10 -14 7 -14 -3 0 -1 -9 5 -20 6 -11
15 -18 20 -15 6 4 7 -1 3 -11 -4 -12 -3 -15 5 -10 14 9 16 -6 2 -20 -6 -6 -5
-15 1 -24 9 -12 10 -12 5 3 -4 11 -2 16 5 11 6 -3 9 -15 6 -25 -4 -13 0 -19
11 -20 10 0 12 -3 5 -5 -7 -3 -9 -12 -6 -20 3 -7 10 -11 17 -8 6 3 2 -2 -8
-10 -20 -16 -20 -16 0 -16 16 0 17 -2 4 -10 -9 -5 -10 -10 -3 -10 7 0 10 -12
7 -32 -4 -25 -2 -29 5 -18 6 8 11 10 11 5 0 -6 -5 -16 -12 -23 -9 -9 -9 -12 1
-12 7 0 9 -4 6 -10 -3 -5 -1 -10 5 -10 6 0 8 -5 5 -10 -4 -6 -12 -7 -18 -3 -7
4 -4 -6 7 -21 13 -21 15 -28 4 -24 -8 4 -14 -1 -14 -12 0 -12 6 -16 16 -12 12
4 13 2 3 -9 -7 -7 -13 -17 -13 -22 0 -4 6 -5 13 -1 6 4 4 -2 -6 -13 -15 -17
-15 -22 -3 -32 15 -12 16 -28 3 -49 -5 -6 -4 -12 1 -12 5 0 9 -7 9 -15 0 -8
-4 -12 -9 -9 -4 3 -8 1 -8 -5 0 -5 5 -13 10 -16 8 -5 7 -11 -1 -21 -6 -8 -7
-14 -2 -14 5 0 10 -7 10 -15 0 -8 -4 -12 -9 -9 -10 6 -11 -10 -1 -20 10 -10
11 -66 1 -60 -4 3 -6 -5 -4 -18 3 -13 5 -23 6 -23 1 0 3 -10 4 -22 1 -12 -1
-20 -6 -17 -4 3 -6 -5 -4 -18 3 -13 5 -23 6 -23 1 0 3 -10 4 -22 1 -12 -1 -20
-6 -17 -4 3 -6 -5 -4 -18 3 -13 5 -23 6 -23 1 0 3 -10 4 -22 1 -12 -1 -20 -6
-17 -4 3 -8 1 -8 -5 0 -5 4 -12 9 -15 10 -7 9 -25 -2 -43 -5 -8 -3 -13 5 -13
10 0 10 -2 -1 -9 -8 -5 -9 -11 -3 -15 11 -7 11 -24 -1 -43 -5 -8 -3 -13 5 -13
10 0 10 -2 -1 -9 -9 -6 -10 -10 -2 -16 9 -5 9 -10 0 -21 -6 -8 -7 -14 -2 -14
5 0 10 -7 10 -15 0 -8 -4 -12 -9 -9 -4 3 -8 1 -8 -5 0 -5 5 -13 10 -16 8 -5 7
-11 -1 -21 -9 -11 -8 -14 2 -14 11 0 11 -2 -1 -10 -13 -9 -13 -10 0 -10 12 0
12 -2 1 -9 -9 -6 -10 -10 -2 -16 9 -5 9 -10 0 -21 -9 -11 -8 -14 2 -14 11 0
11 -2 -1 -10 -13 -9 -13 -10 0 -10 12 0 12 -2 1 -9 -8 -5 -9 -11 -3 -15 11 -7
11 -24 -1 -43 -5 -8 -3 -13 4 -13 7 0 5 -6 -6 -13 -14 -11 -15 -16 -5 -22 9
-6 11 -4 5 5 -5 9 -4 11 4 6 9 -6 9 -11 1 -21 -8 -10 -7 -14 2 -18 11 -4 10
-6 0 -6 -8 -1 -10 -6 -6 -13 11 -17 12 -88 2 -94 -4 -3 -8 -10 -8 -15 0 -6 6
-7 13 -3 8 5 8 2 -2 -9 -11 -14 -11 -17 0 -17 10 0 10 -3 1 -12 -7 -7 -12 -17
-12 -23 0 -5 5 -3 10 5 9 13 10 13 10 0 0 -9 -6 -22 -12 -29 -10 -11 -10 -13
0 -7 6 4 12 3 12 -1 0 -5 -6 -15 -12 -22 -9 -10 -9 -12 -1 -7 6 3 14 2 18 -4
3 -5 1 -10 -4 -10 -6 0 -11 -5 -11 -11 0 -5 4 -8 9 -5 5 4 7 -4 3 -16 -3 -12
-1 -19 5 -15 5 3 10 -1 10 -9 0 -8 -6 -13 -13 -10 -10 4 -11 -1 -4 -17 4 -12
13 -21 20 -19 6 1 9 -2 5 -8 -3 -6 -11 -8 -16 -5 -5 4 -9 1 -9 -4 0 -6 5 -11
11 -11 8 0 8 -5 -1 -15 -10 -12 -9 -16 5 -21 13 -5 14 -9 3 -15 -10 -7 -9 -9
5 -9 20 0 22 -11 5 -29 -10 -11 -10 -13 0 -7 7 4 12 2 13 -6 1 -7 3 -26 5 -43
2 -16 5 -35 6 -42 1 -7 5 -10 10 -7 5 3 6 11 2 17 -3 7 3 1 14 -12 13 -16 21
-20 26 -12 6 9 12 9 24 -1 13 -11 14 -11 7 1 -6 11 -4 13 7 8 9 -3 21 0 28 6
10 9 11 9 6 0 -8 -15 33 -14 53 1 11 8 13 8 8 0 -4 -7 7 -11 36 -10 23 1 48
-3 56 -9 12 -8 13 -7 6 4 -6 11 -4 13 7 8 9 -3 21 0 28 6 10 9 11 9 6 0 -9
-16 6 -17 20 -3 14 14 46 1 37 -14 -5 -8 -3 -8 8 0 8 5 39 9 69 8 36 -2 49 0
40 6 -11 7 -9 9 8 7 15 -1 21 -6 17 -16 -4 -11 -2 -11 8 -3 10 9 17 8 27 -1
10 -9 11 -9 6 1 -4 6 -3 12 1 12 5 0 15 -6 22 -12 11 -11 12 -10 6 1 -6 10 -4
13 7 8 9 -3 21 0 28 6 10 9 11 9 6 0 -4 -7 -3 -13 1 -13 5 0 15 6 22 13 11 10
13 10 7 0 -4 -7 -2 -13 3 -13 6 0 11 6 11 13 0 8 4 7 10 -3 5 -8 10 -10 10 -4
0 6 7 11 15 11 12 0 12 -3 2 -15 -11 -13 -9 -14 13 -2 30 17 50 21 50 11 0 -4
7 -8 15 -8 8 0 15 4 15 9 0 4 5 8 11 8 5 0 7 -6 4 -12 -4 -7 -1 -6 7 3 7 9 19
14 26 12 6 -3 12 0 12 6 0 6 -9 11 -21 11 -11 0 -17 5 -14 10 4 6 12 8 18 4 7
-3 1 4 -13 16 -14 12 -19 19 -12 15 17 -9 15 5 -5 29 -17 20 -17 20 0 7 15
-12 17 -12 11 3 -3 9 -11 16 -16 16 -6 0 -4 8 3 17 12 14 12 16 0 8 -11 -6
-13 -3 -9 13 4 12 3 20 -2 17 -4 -3 -7 11 -5 30 3 34 -8 47 -19 23 -3 -7 -3
-3 0 10 3 13 0 30 -7 38 -10 12 -9 13 4 8 12 -4 14 -1 10 15 -3 12 -10 18 -17
14 -7 -4 -7 -1 1 8 10 12 10 18 0 29 -9 10 -9 11 1 6 14 -8 16 3 2 24 -5 9 -5
19 2 27 7 9 7 13 -1 13 -7 0 -9 5 -4 13 11 18 12 36 2 43 -5 3 -9 10 -9 15 0
6 4 8 8 5 5 -3 9 1 9 9 0 8 -4 12 -8 9 -4 -2 -7 5 -6 16 1 11 6 20 12 20 6 0
7 3 0 8 -5 4 -10 14 -10 22 0 8 5 18 10 22 6 5 5 8 -4 8 -11 0 -11 3 0 17 10
11 10 14 2 9 -7 -4 -13 -2 -13 3 0 6 6 11 13 11 8 0 7 4 -3 11 -11 8 -12 12
-3 16 9 3 8 11 -5 31 -16 26 -16 27 2 12 18 -14 19 -14 7 7 -9 18 -9 23 1 23
6 0 4 6 -7 13 -14 11 -15 16 -5 22 9 6 11 4 5 -5 -6 -9 -4 -11 4 -5 9 5 10 10
2 18 -15 15 -14 40 2 31 9 -6 9 -5 0 7 -9 11 -9 19 -2 26 8 8 7 13 -2 18 -8 6
-10 4 -4 -5 6 -9 4 -11 -4 -6 -9 6 -8 13 5 27 15 17 15 19 0 25 -9 3 -16 10
-16 16 0 5 4 7 9 4 5 -3 12 1 15 10 3 8 2 13 -3 10 -5 -3 -12 1 -15 10 -3 8
-2 13 3 10 5 -3 12 1 15 10 5 12 2 15 -11 10 -15 -5 -15 -4 1 9 18 14 15 20
-9 15 -5 -1 -1 8 9 19 19 21 19 21 0 22 -11 0 -13 3 -6 6 6 2 12 9 12 14 0 6
-4 8 -8 5 -5 -3 -9 1 -9 9 0 8 4 12 8 9 4 -2 10 0 14 6 3 5 1 10 -6 10 -8 0
-7 5 2 17 10 11 10 14 1 9 -14 -8 -12 19 2 43 6 10 5 12 -2 7 -16 -10 -15 7 1
23 7 9 7 11 1 8 -7 -4 -15 0 -18 9 -4 10 -2 13 6 8 8 -5 9 -2 5 9 -4 10 -1 17
5 17 7 0 4 6 -7 13 -14 11 -15 16 -5 22 9 6 11 4 5 -5 -5 -9 -4 -11 4 -6 8 6
9 12 2 20 -7 9 -7 16 0 23 8 8 7 13 -2 18 -8 6 -10 4 -4 -5 5 -9 4 -11 -4 -6
-8 6 -9 12 -2 20 6 7 8 16 4 20 -10 10 -13 37 -3 31 4 -3 11 2 14 10 3 9 -1
18 -9 22 -13 5 -13 7 2 20 10 8 12 12 6 8 -8 -4 -13 1 -13 14 0 10 6 22 13 24
9 4 8 6 -2 6 -11 1 -11 4 0 18 10 11 10 14 2 9 -7 -4 -13 -3 -13 3 0 5 4 12 9
15 5 3 7 15 4 26 -3 11 -9 18 -12 15 -4 -2 -8 2 -8 10 0 8 4 12 8 9 4 -2 10 0
14 6 3 5 1 10 -6 10 -7 0 -9 3 -6 6 3 4 2 15 -4 25 -8 15 -6 17 8 12 16 -6 16
-4 -1 15 -13 15 -15 22 -6 22 10 0 10 3 0 15 -9 10 -9 15 -1 15 18 0 12 30 -6
31 -15 0 -15 2 2 9 11 5 15 9 8 9 -6 1 -9 10 -6 24 4 18 3 19 -6 7 -6 -8 -11
-10 -11 -5 0 6 5 16 12 23 9 9 9 12 -3 12 -12 0 -12 2 1 10 9 6 10 10 3 10 -8
0 -11 13 -9 34 1 19 -1 33 -5 30 -4 -2 -10 0 -14 6 -3 5 2 10 11 10 16 0 16 1
-2 16 -10 8 -13 13 -6 9 6 -3 12 -1 12 4 0 6 -4 11 -9 11 -5 0 -9 10 -9 23 -1
55 -5 77 -13 77 -5 0 -9 8 -9 18 0 10 -7 28 -16 40 -8 12 -12 22 -7 22 4 0 1
5 -7 11 -13 9 -13 10 0 6 8 -2 15 -9 15 -14 0 -6 3 -14 7 -18 10 -10 4 17 -10
43 -7 12 -10 27 -7 32 3 5 1 11 -5 15 -6 4 -7 11 -4 17 4 7 2 8 -5 4 -6 -4 -8
-12 -5 -18 5 -7 2 -8 -5 -3 -7 4 -11 16 -8 26 3 12 0 19 -9 19 -8 0 -14 5 -14
11 0 5 5 7 11 3 8 -4 8 0 0 15 -7 11 -14 21 -17 21 -3 0 -2 -5 2 -12 4 -7 3
-8 -4 -4 -6 4 -8 14 -5 23 5 11 3 14 -6 8 -11 -6 -11 -3 0 16 11 22 11 23 -4
10 -15 -12 -17 -11 -17 3 0 21 -25 48 -35 38 -4 -4 -2 4 5 18 12 22 12 24 -2
12 -13 -10 -18 -10 -24 -1 -4 8 -3 9 4 5 20 -12 13 6 -9 25 -12 10 -27 16 -33
12 -6 -4 -4 2 4 12 14 17 13 18 -3 12 -11 -4 -16 -3 -12 3 3 6 1 10 -5 10 -6
0 -8 5 -4 11 5 8 -1 10 -20 7 -32 -6 -34 -1 -3 12 18 7 18 9 4 9 -12 1 -16 5
-11 14 5 7 0 6 -11 -3 -10 -8 -16 -10 -12 -4 3 6 -3 16 -13 24 -10 8 -17 17
-14 22 3 4 -3 5 -12 1 -13 -5 -15 -3 -9 8 6 11 5 11 -5 2 -14 -13 -40 -7 -40
9 0 6 8 4 18 -3 16 -13 16 -12 3 4 -14 18 -16 18 -28 1 -7 -10 -13 -13 -13 -8
0 5 -12 11 -26 12 -14 1 -33 7 -42 13 -14 9 -13 10 6 5 18 -3 21 -2 12 9 -8
10 -8 15 2 21 19 12 39 14 32 3 -3 -5 0 -9 5 -9 6 0 11 7 11 16 0 10 5 14 16
10 8 -3 13 -2 10 3 -3 4 4 17 17 27 16 14 18 14 9 2 -10 -12 -10 -18 -1 -24 8
-4 9 -3 5 4 -4 7 -2 12 3 12 6 0 11 6 11 14 0 8 10 16 23 18 13 2 22 10 21 20
-1 11 4 14 14 11 11 -5 13 -3 7 8 -7 11 -5 11 10 -1 11 -9 16 -10 11 -2 -4 7
-2 12 5 12 8 0 7 5 -2 17 -13 15 -12 15 11 3 24 -13 24 -12 10 5 -8 10 -10 16
-3 12 15 -10 51 25 45 43 -3 7 0 10 7 6 6 -4 11 -2 11 4 0 6 4 9 9 6 5 -4 8 5
6 19 -2 19 1 23 10 15 10 -8 13 -4 11 19 -2 24 1 28 17 25 13 -2 17 1 14 11
-3 7 1 19 8 25 8 7 12 16 9 21 -3 5 0 9 5 9 6 0 11 6 11 14 0 8 6 17 13 19 8
4 8 6 -3 6 -10 1 -8 6 7 16 17 12 21 24 19 49 -1 24 2 32 10 29 8 -3 11 3 10
14 -2 10 4 24 13 31 9 8 11 11 4 8 -6 -4 -14 -2 -17 3 -3 5 1 12 10 15 14 5
14 9 3 23 -8 10 -9 14 -2 10 12 -7 13 -3 14 51 0 14 4 20 11 16 7 -5 8 -2 2 7
-14 23 -14 42 0 30 9 -7 11 1 9 34 -1 24 2 47 7 50 6 4 7 12 3 18 -4 7 -7 27
-8 45 0 27 2 30 12 16 10 -14 12 -13 9 9 -1 14 -9 34 -17 43 -8 10 -9 15 -3
11 7 -4 14 3 16 18 3 13 2 22 -2 20 -10 -6 -18 16 -13 33 3 6 9 9 15 6 7 -5 7
-1 1 9 -12 24 -4 99 11 90 8 -5 8 -3 0 8 -6 8 -11 28 -10 44 1 17 -2 38 -7 48
-5 11 -4 17 4 17 7 0 6 9 -5 25 -15 22 -15 24 0 18 14 -5 15 -3 4 18 -10 18
-10 24 -1 27 8 3 6 9 -6 18 -13 10 -13 12 -3 9 11 -4 16 1 16 14 0 11 -3 18
-7 15 -9 -5 -17 18 -12 34 3 6 8 10 12 8 4 -3 8 1 8 9 0 8 -4 12 -9 9 -10 -6
-11 10 -1 20 12 11 10 44 -2 40 -12 -5 -12 46 0 66 4 6 -1 21 -12 32 -10 12
-12 18 -4 13 10 -6 12 -2 6 15 -6 17 -4 21 6 14 12 -6 12 -5 0 9 -15 19 -26
23 -15 5 5 -7 3 -8 -5 -4 -9 6 -8 13 5 27 16 17 16 19 0 25 -9 4 -16 14 -15
23 3 32 -1 52 -9 47 -5 -3 -8 7 -7 22 1 15 -5 35 -13 45 -15 16 -14 17 4 11
16 -7 17 -5 7 8 -7 8 -10 18 -6 21 3 4 0 7 -8 7 -11 0 -11 2 1 10 13 8 13 10
-2 10 -12 0 -15 6 -10 23 5 18 3 20 -9 10 -12 -10 -15 -8 -15 7 0 10 4 16 8
14 4 -3 5 2 2 10 -3 9 -10 16 -15 16 -5 0 -8 3 -8 8 3 19 -2 33 -10 28 -5 -3
-12 1 -15 10 -3 8 -2 13 3 9 11 -6 8 22 -4 32 -4 4 -5 1 0 -7 9 -16 4 -12 -35
34 -14 16 -19 26 -12 22 7 -5 12 -1 12 9 0 11 -5 15 -15 11 -12 -4 -13 -2 -6
13 12 21 3 35 -13 21 -8 -6 -12 -2 -13 12 -1 11 -11 29 -23 40 -11 11 -17 24
-13 31 4 7 -2 5 -12 -3 -10 -8 -16 -10 -13 -5 7 12 -17 37 -26 28 -3 -4 -6 2
-6 11 0 12 -5 16 -14 13 -11 -4 -13 -1 -9 10 5 12 2 15 -10 10 -12 -4 -14 -2
-10 10 4 10 2 14 -4 10 -6 -4 -14 0 -17 9 -5 14 -9 14 -22 3 -13 -11 -15 -10
-12 3 1 9 -1 17 -5 17 -4 0 -15 7 -23 16 -9 8 -24 15 -35 15 -13 0 -18 4 -13
12 5 7 2 9 -8 5 -10 -3 -18 1 -21 13 -3 13 -11 16 -31 13 -20 -4 -26 -1 -26
13 0 16 -2 17 -10 4 -7 -11 -10 -11 -10 -2 0 7 -4 11 -9 8 -5 -4 -12 0 -14 6
-4 10 -6 10 -6 0 -1 -10 -5 -10 -17 2 -8 9 -20 14 -25 11 -5 -4 -9 -2 -9 4 0
5 -11 8 -25 6 -14 -1 -28 2 -32 8 -3 6 -1 7 5 3 6 -3 13 -2 16 3 8 12 -37 8
-46 -4 -5 -6 -8 -5 -8 3 0 6 -9 12 -21 12 -13 0 -18 4 -13 13 5 7 0 6 -11 -3
-14 -11 -19 -12 -22 -2 -3 6 -11 12 -19 12 -9 0 -12 -5 -8 -12 4 -7 -5 -2 -20
12 -23 21 -26 22 -20 5 6 -16 5 -18 -7 -9 -8 6 -22 10 -31 9 -10 -2 -18 2 -18
8 0 7 -5 5 -10 -3 -8 -12 -10 -12 -10 -1 0 10 -3 11 -14 2 -11 -9 -16 -9 -22
0 -5 8 -3 10 7 4 8 -5 11 -4 6 0 -13 15 -57 12 -57 -5 -1 -13 -2 -13 -10 1 -6
10 -20 15 -35 14 -14 -2 -27 1 -31 6 -7 12 -24 11 -24 -2 0 -5 5 -7 12 -3 7 4
8 3 4 -5 -5 -8 -12 -9 -19 -3 -7 6 -27 9 -44 7 -20 -2 -30 1 -27 7 4 6 -2 6
-13 -1 -11 -6 -23 -8 -25 -5 -10 10 -48 12 -53 3 -4 -5 -11 -9 -16 -9 -6 0 -7
5 -3 11 4 7 -1 7 -15 -1 -17 -8 -26 -8 -36 0 -9 8 -15 8 -20 0 -5 -8 -11 -8
-21 1 -11 9 -17 9 -28 0 -10 -8 -16 -9 -21 -1 -4 7 -12 7 -25 0 -25 -13 -33
-13 -24 3 5 8 2 8 -9 -2 -14 -11 -20 -11 -34 0 -14 12 -16 12 -8 0 6 -11 4
-13 -7 -8 -9 3 -21 0 -28 -6 -10 -9 -11 -9 -6 1 5 8 0 12 -14 12 -14 0 -19 -4
-14 -12 5 -10 4 -10 -6 -1 -7 6 -19 9 -28 6 -11 -5 -13 -2 -7 6 6 10 3 11 -13
2 -11 -6 -23 -11 -27 -11 -3 0 -3 5 1 11 5 8 1 8 -14 0 -27 -14 -35 -14 -26 2
6 9 4 9 -8 -1 -9 -7 -19 -9 -21 -5 -7 10 -48 10 -65 -1 -7 -4 -20 -2 -29 6
-14 11 -16 11 -8 -1 6 -11 4 -13 -7 -8 -9 3 -21 0 -27 -6 -9 -9 -11 -8 -6 4 7
18 -14 20 -49 4 -12 -5 -21 -3 -27 6 -7 12 -9 12 -9 0 0 -10 -3 -11 -13 -3
-10 9 -19 7 -37 -5 -13 -9 -20 -11 -16 -5 9 15 -13 27 -27 13 -13 -13 -31 -15
-23 -3 3 5 -5 7 -17 6 -12 -1 -26 -3 -30 -3 -5 -1 -5 -7 -1 -13 6 -10 5 -10
-8 -1 -8 7 -18 10 -22 6 -4 -4 -11 -1 -16 7 -9 13 -10 13 -10 0 0 -13 -1 -13
-10 0 -7 12 -12 12 -22 2 -13 -13 -32 -17 -24 -4 5 9 -32 11 -40 2z m815 -757
c-12 -15 -12 -16 4 -10 11 4 31 10 45 13 21 4 24 3 12 -5 -9 -7 -11 -11 -3
-11 7 0 17 8 22 18 10 16 10 15 11 -3 0 -17 2 -17 10 -5 5 8 10 10 10 4 0 -7
11 -11 24 -10 18 1 22 4 14 14 -15 17 -2 15 16 -4 12 -12 16 -12 16 -2 0 10 3
9 10 -2 8 -12 10 -12 11 5 l0 20 9 -20 c6 -13 9 -15 9 -5 1 13 2 13 11 0 9
-13 12 -12 25 4 15 20 15 20 15 0 0 -14 2 -16 9 -5 7 11 9 11 14 0 4 -11 9
-10 21 5 12 15 16 16 16 5 0 -11 11 -15 41 -15 24 0 44 -6 50 -15 7 -12 9 -12
9 1 0 12 2 13 9 1 5 -7 14 -10 20 -7 6 4 11 2 11 -4 0 -7 7 -10 15 -7 8 4 17
2 20 -4 4 -5 11 -7 16 -4 5 4 6 -2 2 -11 -5 -14 -3 -16 11 -11 11 5 15 3 10
-5 -5 -8 -2 -9 11 -4 16 6 16 4 4 -11 -8 -9 -9 -14 -2 -10 7 4 14 -1 18 -12 4
-13 11 -18 22 -14 13 5 15 2 11 -15 -4 -12 -2 -20 3 -16 5 3 14 2 20 -2 8 -4
7 -9 -2 -15 -10 -6 -11 -9 -1 -9 6 0 12 -7 12 -16 0 -8 4 -13 9 -10 5 4 8 -5
6 -20 -2 -19 1 -24 14 -20 11 4 10 2 -3 -9 -11 -8 -15 -15 -10 -15 6 0 16 -12
22 -26 7 -14 8 -23 2 -19 -5 3 -3 -7 5 -21 8 -15 11 -32 7 -38 -11 -19 -9 -48
5 -53 7 -3 10 -9 7 -14 -3 -5 -10 -6 -16 -3 -5 4 -4 -4 3 -17 16 -30 19 -89 5
-89 -6 0 -4 -5 4 -10 10 -6 11 -10 3 -10 -7 0 -13 -5 -13 -11 0 -5 4 -8 8 -5
5 3 9 -1 9 -9 0 -8 -5 -15 -11 -15 -6 0 -4 -5 4 -10 13 -9 13 -10 0 -10 -13 0
-13 -1 0 -10 10 -6 11 -10 3 -10 -7 0 -13 -5 -13 -11 0 -5 4 -8 8 -5 5 3 9 -1
9 -9 0 -8 -5 -11 -11 -8 -6 4 -5 -1 3 -10 11 -14 11 -17 0 -17 -11 0 -11 -2 1
-10 10 -6 11 -10 3 -10 -7 0 -13 -5 -13 -11 0 -5 4 -8 8 -5 5 3 9 -1 9 -9 0
-8 -5 -11 -11 -8 -6 4 -5 -1 3 -10 11 -14 11 -17 0 -17 -11 0 -11 -2 1 -10 10
-6 11 -10 3 -10 -7 0 -13 -5 -13 -11 0 -5 4 -8 8 -5 5 3 9 -1 9 -9 0 -8 -5
-11 -11 -8 -6 4 -5 -1 3 -10 11 -14 11 -17 0 -17 -11 0 -11 -2 1 -10 10 -6 11
-10 3 -10 -7 0 -13 -5 -13 -11 0 -5 4 -8 8 -5 5 3 9 -1 9 -9 0 -8 -5 -11 -11
-8 -6 4 -5 -1 3 -10 11 -14 11 -17 0 -17 -11 0 -11 -2 1 -10 10 -6 11 -10 3
-10 -7 0 -13 -5 -13 -11 0 -5 4 -8 9 -5 11 7 9 -13 -2 -31 -5 -8 -3 -13 5 -13
10 0 10 -2 -1 -9 -17 -11 -23 -39 -10 -47 5 -3 4 -14 -3 -27 -11 -21 -10 -21
8 -7 12 9 9 3 -6 -14 -22 -26 -23 -28 -5 -22 17 6 16 4 -5 -20 -14 -15 -20
-24 -13 -20 6 3 14 2 18 -4 3 -6 -4 -10 -17 -10 -17 0 -19 -3 -9 -9 9 -6 10
-11 2 -15 -6 -4 -8 -12 -5 -18 5 -7 2 -9 -8 -5 -11 4 -15 0 -13 -11 1 -9 -2
-23 -8 -30 -7 -9 -5 -11 9 -7 10 4 7 -1 -8 -10 -32 -18 -37 -27 -10 -19 9 4 5
-3 -11 -13 -15 -11 -24 -23 -20 -28 5 -4 -2 -6 -14 -3 -19 5 -21 3 -12 -19 6
-17 6 -22 -2 -17 -6 3 -17 -4 -26 -15 -11 -17 -18 -19 -28 -11 -10 8 -17 6
-28 -11 -9 -11 -20 -18 -26 -14 -6 3 -11 -2 -11 -12 0 -15 -2 -16 -10 -3 -8
12 -11 11 -16 -8 -5 -17 -9 -20 -15 -11 -12 20 -39 20 -31 1 5 -15 4 -16 -13
-2 -11 9 -16 10 -11 3 4 -7 2 -13 -3 -13 -6 0 -11 5 -11 11 0 6 -7 3 -16 -6
-12 -12 -19 -13 -30 -4 -11 9 -14 8 -14 -2 -1 -9 -6 -7 -17 6 -12 15 -14 16
-10 3 3 -9 0 -19 -9 -22 -8 -3 -13 -2 -10 3 3 5 -1 12 -10 15 -8 3 -12 2 -9
-4 9 -14 -8 -12 -24 3 -10 8 -12 8 -7 0 3 -6 2 -14 -4 -18 -5 -3 -10 -1 -10 6
0 8 -5 7 -17 -2 -11 -10 -14 -10 -9 -1 9 15 5 15 -29 2 -23 -9 -26 -8 -21 5 4
10 2 14 -5 9 -6 -3 -31 -6 -55 -6 -24 1 -46 -3 -50 -9 -4 -6 -14 -3 -27 8 -11
10 -17 12 -13 5 6 -10 1 -10 -22 2 -29 15 -38 43 -17 58 6 5 4 8 -5 8 -13 0
-13 1 0 10 12 7 12 13 4 27 -6 10 -8 27 -4 38 4 11 5 24 2 30 -10 17 -9 45 2
45 6 0 4 5 -4 10 -13 9 -13 10 0 10 13 0 13 1 0 10 -11 7 -11 10 -2 10 8 0 10
5 6 12 -11 18 -12 48 -2 48 5 0 6 6 2 12 -12 19 -12 48 0 48 6 0 4 5 -4 10 -8
5 -10 10 -5 10 10 0 11 177 1 187 -3 3 2 11 11 18 13 9 13 14 3 20 -9 6 -11 4
-5 -6 5 -8 4 -11 -1 -6 -13 13 -11 41 5 53 11 9 12 12 1 19 -9 6 -11 4 -5 -6
5 -8 4 -11 -1 -6 -13 13 -11 41 5 53 11 9 12 12 1 19 -9 6 -11 4 -5 -6 5 -8 4
-11 -1 -6 -13 13 -11 41 5 53 11 9 12 12 1 19 -9 6 -11 4 -5 -6 5 -8 4 -11 0
-6 -12 10 -14 47 -3 47 5 0 6 5 2 12 -8 13 -8 187 0 195 3 3 1 14 -5 24 -8 15
-6 19 6 19 9 0 13 5 10 10 -4 6 -9 8 -13 6 -4 -2 -7 13 -7 35 0 21 4 39 9 39
5 0 3 7 -4 15 -7 9 -8 15 -2 15 5 0 8 8 5 19 -3 10 0 22 6 25 7 5 6 15 -5 32
-13 19 -14 24 -3 24 11 0 11 2 -1 10 -13 9 -13 10 0 10 11 1 10 4 -5 17 -15
12 -16 14 -3 10 12 -4 16 -1 13 14 -2 10 -7 24 -10 29 -3 6 0 10 7 11 7 0 4 4
-7 9 -19 8 -19 9 3 9 21 1 22 2 8 17 -14 14 -14 17 -1 30 21 21 19 29 -2 13
-17 -12 -17 -12 -2 5 9 9 35 19 59 21 24 3 45 7 48 10 13 12 13 3 1 -12z
m-102 -249 c-3 -3 -12 -4 -19 -1 -8 3 -5 6 6 6 11 1 17 -2 13 -5z m-819 -159
c-3 -3 -9 2 -12 12 -6 14 -5 15 5 6 7 -7 10 -15 7 -18z m2447 -244 c3 -5 2
-12 -3 -15 -5 -3 -9 1 -9 9 0 17 3 19 12 6z m-1025 -801 c0 -5 -5 -10 -11 -10
-5 0 -7 5 -4 10 3 6 8 10 11 10 2 0 4 -4 4 -10z m-1422 -1515 c-3 -3 -9 2 -12
12 -6 14 -5 15 5 6 7 -7 10 -15 7 -18z m12 -409 c0 -2 -8 -10 -17 -17 -16 -13
-17 -12 -4 4 13 16 21 21 21 13z m820 -1120 c0 -2 -6 -9 -14 -15 -11 -9 -16
-9 -22 0 -4 7 -3 9 4 5 6 -3 13 -2 17 4 6 10 15 14 15 6z"/>
<path d="M5096 4593 c-6 -14 -5 -15 5 -6 7 7 10 15 7 18 -3 3 -9 -2 -12 -12z"/>
<path d="M4936 3683 c-6 -14 -5 -15 5 -6 7 7 10 15 7 18 -3 3 -9 -2 -12 -12z"/>
<path d="M2887 5149 c7 -7 15 -10 18 -7 3 3 -2 9 -12 12 -14 6 -15 5 -6 -5z"/>
<path d="M2908 5103 c7 -3 16 -2 19 1 4 3 -2 6 -13 5 -11 0 -14 -3 -6 -6z"/>
<path d="M2780 5096 c0 -2 8 -10 18 -17 15 -13 16 -12 3 4 -13 16 -21 21 -21
13z"/>
<path d="M2917 5073 c5 -15 3 -16 -8 -5 -7 6 -22 12 -33 11 -16 0 -17 -2 -6
-7 17 -8 25 -32 11 -32 -5 0 -11 3 -14 8 -2 4 -2 1 0 -7 2 -8 -5 -23 -14 -34
-11 -12 -12 -17 -4 -12 11 6 13 4 8 -9 -4 -10 -4 -23 0 -29 10 -16 10 -56 0
-50 -5 3 -7 14 -4 24 3 11 1 19 -3 19 -13 0 -18 -24 -9 -42 6 -10 5 -19 -1
-23 -6 -4 -9 -1 -8 6 2 6 -4 14 -12 16 -10 3 -11 2 -4 -4 6 -4 10 -16 8 -25
-1 -10 3 -21 8 -25 7 -4 8 -1 3 8 -5 8 -4 10 0 6 5 -4 10 -14 11 -22 2 -11 -2
-12 -16 -5 -16 8 -18 7 -15 -10 2 -11 -3 -24 -13 -30 -9 -5 -12 -10 -5 -10 7
0 18 -10 24 -22 11 -20 10 -21 -2 -11 -12 10 -15 8 -15 -6 0 -10 5 -17 11 -15
13 5 17 -33 4 -41 -5 -3 -6 1 -3 9 7 18 -21 23 -31 6 -3 -5 0 -7 8 -4 10 3 13
-3 12 -23 -1 -16 -5 -34 -9 -41 -4 -7 -4 -12 0 -12 3 0 0 -8 -7 -17 -13 -16
-12 -17 3 -5 13 10 17 10 20 0 7 -21 -4 -58 -15 -51 -6 3 -3 -4 5 -16 12 -17
14 -31 8 -52 -8 -27 -6 -33 13 -30 14 2 7 -17 -9 -23 -8 -3 -13 -2 -10 3 3 5
-1 12 -9 15 -12 4 -13 2 -6 -13 6 -10 7 -22 3 -26 -4 -4 4 -4 18 -1 17 5 21 4
11 -2 -7 -5 -10 -15 -7 -21 4 -6 3 -11 -3 -11 -6 0 -7 -7 -4 -17 4 -9 2 -14
-3 -11 -5 4 -9 -4 -9 -17 0 -13 3 -21 8 -18 4 2 7 -3 7 -12 0 -10 -5 -13 -12
-9 -6 4 -8 3 -4 -4 3 -5 0 -13 -6 -16 -7 -4 -4 -5 8 -2 12 2 21 -2 21 -10 0
-7 -4 -11 -9 -8 -4 3 -5 -1 -2 -9 3 -8 1 -18 -5 -22 -8 -4 -6 -13 4 -28 20
-28 19 -44 -2 -50 -14 -4 -15 -5 -2 -6 11 -1 14 -9 11 -30 -3 -23 -8 -28 -21
-23 -14 5 -14 4 2 -12 9 -9 17 -22 17 -28 0 -6 -7 -5 -17 3 -16 13 -17 12 -4
-3 11 -15 11 -18 0 -18 -12 0 -12 -2 0 -9 7 -5 10 -14 7 -20 -5 -7 -2 -10 6
-9 8 2 12 -5 10 -17 -2 -18 -2 -18 8 -2 13 21 27 22 27 2 0 -8 -5 -15 -11 -15
-6 0 -5 -4 2 -9 7 -4 14 -17 15 -29 0 -12 3 -19 5 -17 3 2 14 0 26 -6 19 -9
19 -8 -1 7 -13 9 -23 23 -23 31 0 8 15 -1 35 -21 19 -20 35 -32 35 -28 0 5 -5
13 -12 20 -8 8 -8 15 1 26 7 8 10 20 6 25 -3 7 0 8 10 5 11 -5 14 -2 9 12 -5
15 -4 16 4 4 6 -8 8 -19 5 -25 -3 -5 0 -5 7 2 8 7 10 18 5 30 -11 25 -13 63
-3 56 5 -2 6 -13 3 -22 -3 -10 1 -24 10 -31 8 -7 12 -17 8 -24 -4 -6 0 -5 9 2
9 7 15 24 13 38 -1 13 2 27 7 30 5 3 5 10 -1 17 -14 18 -14 29 1 38 10 7 8 9
-6 9 -11 0 -16 3 -13 7 4 3 1 13 -5 22 -8 10 -4 9 10 -3 20 -17 22 -18 22 -2
0 9 4 15 9 11 5 -3 13 0 17 6 4 7 3 9 -3 6 -6 -4 -13 3 -16 14 -4 13 -10 18
-17 14 -9 -6 -9 -10 1 -16 7 -4 11 -10 8 -14 -3 -3 -14 5 -25 17 -10 12 -14
18 -7 14 15 -9 34 25 28 52 -3 16 0 19 12 15 11 -4 14 -2 9 5 -4 7 -2 12 6 12
8 0 9 3 3 8 -5 4 -16 18 -23 31 -13 22 -12 23 3 17 16 -6 16 -4 4 11 -12 15
-12 16 5 10 14 -6 16 -4 9 5 -6 7 -10 30 -9 50 1 20 -1 35 -4 33 -3 -2 -6 5
-6 16 0 10 3 19 7 19 3 0 4 12 2 28 -2 15 -4 35 -4 45 0 10 -5 15 -12 11 -7
-3 -3 2 7 10 15 12 16 16 5 16 -10 0 -11 2 -2 8 7 5 9 13 3 22 -6 9 -3 18 8
28 9 7 11 11 5 7 -7 -3 -13 -1 -13 5 0 6 -5 8 -12 4 -7 -4 -8 -3 -4 5 4 6 10
9 14 7 4 -2 6 27 4 65 -2 38 -8 69 -13 69 -4 0 -6 -8 -2 -17 8 -23 -1 -15 -16
14 -10 19 -9 22 4 17 11 -5 14 -2 9 11 -4 10 -1 21 7 27 10 7 7 8 -11 3 -23
-6 -24 -5 -7 8 15 13 16 16 2 27 -10 9 -12 16 -5 25 6 8 5 18 -5 31 -13 18
-14 18 -9 -6 4 -21 3 -22 -5 -5 -5 12 -5 25 1 32 6 7 5 14 -2 18 -6 3 -7 11
-4 17 4 6 2 8 -4 5 -12 -8 -42 1 -42 13 0 4 12 6 28 4 24 -3 24 -3 4 4 -21 6
-32 30 -11 25 4 -2 6 4 2 12 -5 13 -7 13 -20 -2 -13 -17 -14 -17 -8 4 3 12 1
24 -4 28 -7 4 -8 -1 -4 -12z m1 -33 c11 -18 9 -24 -14 -47 -20 -20 -23 -28
-12 -35 10 -8 10 -9 -2 -5 -8 2 -15 10 -15 18 0 8 -4 19 -7 25 -4 6 2 18 13
27 11 10 17 22 14 27 -3 6 -2 10 2 10 5 0 14 -9 21 -20z m22 -54 c0 -2 -7 -7
-16 -10 -8 -3 -12 -2 -9 4 6 10 25 14 25 6z m35 -16 c3 -6 -1 -7 -9 -4 -18 7
-21 14 -7 14 6 0 13 -4 16 -10z m-15 -14 c0 -2 -7 -7 -16 -10 -8 -3 -12 -2 -9
4 6 10 25 14 25 6z m-69 -43 c13 -16 12 -17 -3 -4 -17 13 -22 21 -14 21 2 0
10 -8 17 -17z m-61 -113 c0 -5 -5 -10 -11 -10 -5 0 -7 5 -4 10 3 6 8 10 11 10
2 0 4 -4 4 -10z m-6 -158 c3 -5 -1 -9 -9 -9 -8 0 -12 4 -9 9 3 4 7 8 9 8 2 0
6 -4 9 -8z m-3 -305 c-10 -9 -11 -8 -5 6 3 10 9 15 12 12 3 -3 0 -11 -7 -18z
m4 -116 c-3 -6 -11 -11 -16 -11 -5 0 -4 6 3 14 14 16 24 13 13 -3z m20 -20 c3
-5 2 -12 -3 -15 -5 -3 -9 1 -9 9 0 17 3 19 12 6z m-5 -111 c0 -5 -2 -10 -4
-10 -3 0 -8 5 -11 10 -3 6 -1 10 4 10 6 0 11 -4 11 -10z m-10 -31 c0 -6 -4 -7
-10 -4 -5 3 -10 11 -10 16 0 6 5 7 10 4 6 -3 10 -11 10 -16z m160 11 c0 -5 -5
-10 -11 -10 -5 0 -7 5 -4 10 3 6 8 10 11 10 2 0 4 -4 4 -10z m20 -24 c0 -2 -7
-7 -16 -10 -8 -3 -12 -2 -9 4 6 10 25 14 25 6z m-184 -22 c-5 -13 -4 -14 7 -6
10 9 14 8 14 -3 0 -8 -4 -12 -9 -9 -4 3 -8 -1 -8 -8 -1 -8 -6 -6 -15 6 -15 20
-12 36 7 36 5 0 7 -7 4 -16z m171 -23 c0 -11 -5 -17 -9 -15 -11 7 -10 34 1 34
6 0 9 -9 8 -19z m-130 -15 c-4 -9 1 -16 11 -18 14 -3 13 -5 -4 -10 -17 -4 -21
-2 -19 11 2 9 4 19 4 24 1 4 4 7 7 7 3 0 4 -6 1 -14z"/>
<path d="M2904 5032 c3 -6 -3 -13 -14 -17 -19 -6 -19 -25 0 -25 16 0 31 38 18
46 -6 4 -8 3 -4 -4z"/>
<path d="M2806 5032 c-3 -5 1 -9 9 -9 8 0 12 4 9 9 -3 4 -7 8 -9 8 -2 0 -6 -4
-9 -8z"/>
<path d="M2815 4939 c-4 -6 -5 -12 -2 -15 2 -3 7 2 10 11 7 17 1 20 -8 4z"/>
<path d="M2756 4837 c3 -10 9 -15 12 -12 3 3 0 11 -7 18 -10 9 -11 8 -5 -6z"/>
<path d="M2756 4592 c-3 -5 1 -9 9 -9 8 0 12 4 9 9 -3 4 -7 8 -9 8 -2 0 -6 -4
-9 -8z"/>
<path d="M2790 4509 c0 -5 5 -7 10 -4 6 3 10 8 10 11 0 2 -4 4 -10 4 -5 0 -10
-5 -10 -11z"/>
<path d="M2775 4480 c-3 -6 1 -7 9 -4 18 7 21 14 7 14 -6 0 -13 -4 -16 -10z"/>
<path d="M2755 4431 c-3 -5 -2 -12 3 -15 5 -3 9 1 9 9 0 17 -3 19 -12 6z"/>
<path d="M2763 4385 c-3 -9 -3 -18 -1 -21 3 -3 8 4 11 16 6 23 -1 27 -10 5z"/>
<path d="M2776 4245 c-9 -26 -7 -32 5 -12 6 10 9 21 6 23 -2 3 -7 -2 -11 -11z"/>
<path d="M3020 4226 c0 -2 8 -10 18 -17 15 -13 16 -12 3 4 -13 16 -21 21 -21
13z"/>
<path d="M2775 4190 c-4 -6 -1 -9 7 -8 7 2 12 -3 11 -9 -2 -7 2 -13 7 -13 14
0 12 16 -4 29 -10 8 -16 9 -21 1z"/>
<path d="M3020 4190 c0 -5 5 -10 11 -10 5 0 7 5 4 10 -3 6 -8 10 -11 10 -2 0
-4 -4 -4 -10z"/>
<path d="M3473 4095 c0 -8 4 -12 9 -9 5 3 6 10 3 15 -9 13 -12 11 -12 -6z"/>
<path d="M2685 3940 c-3 -6 1 -7 9 -4 18 7 21 14 7 14 -6 0 -13 -4 -16 -10z"/>
<path d="M2929 3934 c-6 -8 -4 -16 8 -25 11 -9 14 -10 9 -1 -6 10 3 16 25 14
3 -1 6 5 6 11 0 16 -35 17 -48 1z"/>
<path d="M2895 3870 c3 -5 8 -10 11 -10 2 0 4 5 4 10 0 6 -5 10 -11 10 -5 0
-7 -4 -4 -10z"/>
<path d="M2613 3293 c1 -26 12 -30 21 -7 3 8 2 13 -3 9 -5 -3 -11 1 -14 7 -3
7 -4 3 -4 -9z"/>
<path d="M2636 3264 c-8 -20 -8 -24 2 -24 4 0 8 9 9 20 2 24 -3 26 -11 4z"/>
<path d="M2590 3252 c0 -5 7 -9 15 -9 8 0 15 4 15 9 0 4 -7 8 -15 8 -8 0 -15
-4 -15 -8z"/>
<path d="M2660 3250 c0 -5 5 -10 11 -10 5 0 7 5 4 10 -3 6 -8 10 -11 10 -2 0
-4 -4 -4 -10z"/>
<path d="M2695 3250 c-3 -5 -1 -10 4 -10 6 0 11 5 11 10 0 6 -2 10 -4 10 -3 0
-8 -4 -11 -10z"/>
<path d="M2723 3233 c-16 -6 -17 -33 -2 -33 5 0 7 4 4 10 -3 5 0 8 7 7 7 -2
10 -2 5 0 -4 3 -5 9 -1 14 6 10 5 10 -13 2z"/>
<path d="M2609 3213 c-13 -16 -12 -17 4 -4 16 13 21 21 13 21 -2 0 -10 -8 -17
-17z"/>
<path d="M2682 3216 c7 -8 15 -12 17 -11 5 6 -10 25 -20 25 -5 0 -4 -6 3 -14z"/>
<path d="M2720 3190 c-8 -5 -10 -10 -5 -10 6 0 17 5 25 10 8 5 11 10 5 10 -5
0 -17 -5 -25 -10z"/>
<path d="M2752 3181 c-11 -7 -11 -9 0 -14 9 -3 15 1 15 9 0 8 -1 14 -1 14 -1
0 -7 -4 -14 -9z"/>
<path d="M2620 3113 c0 -6 8 -17 18 -24 16 -13 16 -13 2 6 -8 11 -16 22 -17
24 -2 2 -3 0 -3 -6z"/>
<path d="M2815 3110 c-3 -5 -1 -10 4 -10 6 0 11 5 11 10 0 6 -2 10 -4 10 -3 0
-8 -4 -11 -10z"/>
<path d="M4427 2847 c-3 -8 1 -14 8 -14 7 0 11 6 8 14 -3 7 -6 13 -8 13 -2 0
-5 -6 -8 -13z"/>
<path d="M2994 2686 c1 -8 5 -18 8 -22 4 -3 5 1 4 10 -1 8 -5 18 -8 22 -4 3
-5 -1 -4 -10z"/>
<path d="M2996 2612 c-3 -5 1 -9 9 -9 8 0 12 4 9 9 -3 4 -7 8 -9 8 -2 0 -6 -4
-9 -8z"/>
<path d="M3015 2580 c-4 -6 -10 -8 -15 -5 -5 3 -12 0 -16 -7 -4 -7 -4 -10 1
-6 4 4 14 0 22 -10 12 -16 13 -16 6 2 -4 12 -3 17 4 13 5 -3 10 0 10 8 0 18
-3 19 -12 5z"/>
<path d="M2896 2572 c-2 -4 -1 -14 4 -22 7 -11 9 -9 7 8 -1 24 -3 26 -11 14z"/>
<path d="M2950 2575 c0 -5 5 -17 10 -25 5 -8 10 -10 10 -5 0 6 -5 17 -10 25
-5 8 -10 11 -10 5z"/>
<path d="M2940 2540 c6 -11 15 -20 20 -20 6 0 2 9 -7 20 -10 11 -19 20 -21 20
-1 0 2 -9 8 -20z"/>
<path d="M3029 2533 c-13 -16 -12 -17 4 -4 16 13 21 21 13 21 -2 0 -10 -8 -17
-17z"/>
<path d="M2980 2536 c0 -2 7 -7 16 -10 8 -3 12 -2 9 4 -6 10 -25 14 -25 6z"/>
<path d="M2932 2509 c3 -8 1 -23 -4 -34 -9 -20 -9 -20 6 -1 19 23 20 32 5 42
-7 4 -10 1 -7 -7z"/>
<path d="M2955 2481 c-14 -23 -30 -39 -35 -36 -6 3 -10 1 -10 -5 0 -7 8 -9 22
-4 20 6 21 5 9 -10 -8 -10 -21 -14 -32 -11 -11 4 -19 2 -19 -3 0 -12 32 -11
49 2 12 9 13 8 9 -5 -4 -9 -1 -22 5 -29 10 -10 7 -10 -12 0 -31 16 -47 -5 -26
-36 12 -19 12 -24 -4 -38 -10 -9 -20 -15 -22 -14 -2 2 -2 1 -1 -2 2 -3 8 -6
13 -6 5 -1 14 -2 19 -3 6 0 10 -6 10 -12 0 -5 -4 -8 -8 -5 -4 2 -8 -4 -8 -15
0 -25 2 -24 21 9 15 26 15 26 13 3 -2 -13 2 -26 7 -27 14 -5 41 13 32 22 -3 4
-15 1 -24 -7 -16 -12 -17 -12 -6 2 7 9 9 20 5 24 -4 5 -1 5 7 0 10 -5 12 -4 7
4 -4 6 -12 9 -17 6 -5 -4 -9 -1 -9 5 0 7 7 10 18 6 10 -4 7 2 -8 14 -15 12
-18 18 -7 14 9 -3 17 -1 17 5 0 6 -3 10 -7 9 -14 -5 -55 30 -44 37 6 3 11 2
11 -2 0 -5 9 -9 20 -10 23 -2 26 7 8 26 -11 11 -9 11 9 0 15 -9 19 -17 13 -23
-12 -12 -13 -26 -2 -25 20 3 32 -2 26 -12 -4 -8 -9 -7 -15 2 -7 11 -9 11 -9 1
0 -7 7 -15 15 -18 14 -6 13 -8 -2 -21 -10 -8 -12 -11 -4 -7 9 5 12 3 7 -5 -4
-6 -2 -18 4 -26 7 -8 8 -15 3 -15 -5 0 -9 -11 -9 -24 0 -14 3 -23 7 -20 4 2
10 -3 13 -12 4 -11 2 -15 -8 -11 -7 3 -18 1 -22 -3 -5 -5 -15 -5 -23 -1 -9 6
-10 11 -2 15 6 4 11 2 11 -4 0 -6 4 -9 9 -6 5 4 8 14 7 23 -3 18 -47 35 -63
24 -13 -8 -26 -44 -13 -36 10 6 34 -31 36 -57 1 -10 -3 -18 -9 -18 -5 0 -7 -9
-4 -21 4 -15 2 -19 -9 -15 -8 3 -14 2 -14 -3 0 -5 10 -11 22 -14 21 -6 21 -7
3 -27 -17 -19 -17 -21 0 -40 17 -19 17 -21 1 -39 -9 -10 -14 -25 -10 -35 3 -9
1 -16 -5 -16 -7 0 1 -12 16 -26 l28 -26 -27 16 c-31 18 -37 13 -13 -10 16 -16
21 -39 7 -30 -4 2 -14 0 -22 -6 -12 -8 -11 -9 4 -4 13 5 17 2 13 -9 -8 -20 11
-29 28 -15 10 8 15 9 15 2 0 -13 -18 -25 -43 -29 -10 -2 -15 1 -12 7 3 5 1 10
-5 10 -6 0 -8 5 -4 12 4 7 3 8 -4 4 -13 -8 1 -46 17 -46 4 0 8 -7 8 -15 0 -8
-7 -15 -14 -15 -8 0 -12 4 -8 9 9 15 -15 25 -28 12 -9 -9 -8 -11 5 -6 17 7 19
-9 5 -32 -6 -9 -3 -11 10 -6 16 6 16 5 4 -11 -8 -9 -21 -14 -30 -11 -13 4 -12
2 2 -9 18 -14 24 -32 7 -21 -5 3 -15 3 -21 -1 -8 -4 1 -18 23 -38 19 -17 32
-30 30 -29 -2 1 -11 -5 -19 -13 -8 -8 -18 -12 -23 -9 -5 3 -12 0 -16 -6 -5 -8
-3 -9 6 -4 10 6 12 4 7 -8 -3 -9 1 -23 9 -32 18 -18 4 -21 -15 -2 -11 10 -11
8 -2 -10 7 -15 17 -20 29 -17 10 4 13 3 6 -3 -6 -4 -10 -16 -8 -26 1 -10 -2
-14 -9 -10 -6 4 -8 0 -4 -10 3 -9 1 -19 -5 -23 -6 -4 -8 -3 -4 4 3 6 3 13 -2
16 -4 2 -9 -4 -9 -15 -1 -15 3 -19 17 -14 12 4 26 -1 39 -14 10 -10 22 -17 24
-15 3 3 8 -1 13 -8 4 -7 4 -10 -1 -6 -4 4 -15 2 -23 -5 -13 -10 -14 -9 -7 2 5
10 4 12 -3 7 -8 -5 -10 -1 -5 10 5 14 3 16 -11 11 -11 -4 -15 -3 -10 4 4 8 0
7 -15 0 -28 -15 -27 -22 3 -17 18 3 23 1 19 -10 -3 -8 0 -14 7 -14 6 0 8 -5 4
-12 -5 -7 -3 -8 6 -3 10 6 12 4 7 -9 -4 -10 8 -2 26 17 30 32 36 48 40 99 1 9
5 14 9 12 4 -3 8 2 8 11 0 10 -5 13 -12 9 -7 -4 -8 -3 -4 4 4 6 14 8 24 5 16
-6 16 -5 1 13 -20 23 -21 51 -2 58 11 4 11 1 2 -15 -6 -11 -9 -22 -7 -23 2 -1
12 -8 23 -16 18 -14 19 -14 7 2 -11 14 -10 18 5 28 17 11 17 11 0 6 -12 -4
-17 -2 -14 6 2 7 11 12 18 10 8 -2 11 0 7 4 -4 4 -2 14 4 23 8 10 4 9 -10 -3
-21 -19 -32 -10 -12 10 6 6 3 10 -10 10 -13 0 -19 -5 -15 -14 2 -7 0 -10 -5
-7 -6 3 -10 1 -10 -6 0 -7 -3 -10 -6 -7 -3 4 -1 15 5 27 9 16 8 22 -6 30 -10
6 -13 11 -8 11 14 0 17 40 4 40 -5 0 -9 6 -8 13 3 24 -1 37 -12 37 -6 0 -9 -7
-6 -15 4 -8 2 -17 -3 -20 -13 -8 -37 4 -37 20 0 8 4 12 9 9 7 -5 12 10 9 29
-1 5 4 5 10 1 8 -4 9 -3 5 4 -5 8 -2 10 9 6 14 -6 14 -8 -2 -20 -13 -10 -14
-13 -3 -9 9 3 24 -2 35 -11 11 -8 15 -13 9 -10 -6 3 -11 -1 -11 -9 0 -8 4 -12
8 -10 14 9 38 -7 32 -21 -4 -12 -8 -12 -20 3 -13 17 -14 17 -5 -2 5 -11 8 -28
7 -38 -2 -10 1 -14 7 -11 7 5 8 2 4 -7 -4 -8 0 -5 9 6 9 11 20 20 25 20 4 0
11 3 15 7 4 3 0 5 -9 4 -8 -1 -19 -5 -22 -9 -17 -17 -23 -5 -9 16 8 13 12 27
8 30 -3 4 -1 7 5 7 7 0 12 5 12 11 0 8 -5 7 -15 -1 -9 -7 -19 -9 -23 -5 -4 4
-1 10 6 12 10 4 10 8 1 19 -9 11 -8 18 2 31 11 13 11 15 1 9 -9 -5 -13 -3 -11
5 3 27 -1 40 -11 34 -6 -4 -9 2 -7 14 4 23 17 41 17 23 0 -7 5 -12 11 -12 8 0
8 5 -1 15 -7 8 -16 13 -20 10 -5 -3 -11 -1 -15 5 -3 5 3 10 14 10 11 0 23 5
27 11 4 8 -1 9 -15 4 -22 -7 -22 -6 -7 23 13 25 13 32 2 41 -7 6 -13 23 -13
36 0 20 2 23 13 14 7 -6 11 -16 8 -24 -7 -18 9 -26 26 -13 12 8 11 9 -4 4 -13
-5 -17 -2 -13 9 4 8 -1 21 -9 30 -14 13 -14 17 0 31 23 23 20 30 -4 9 -11 -10
-20 -13 -20 -7 0 7 9 17 20 24 11 7 20 17 20 22 0 6 -5 5 -12 -2 -16 -16 -33
-15 -19 1 8 10 7 17 -2 27 -10 10 -9 12 5 7 24 -9 34 12 15 31 -15 14 -15 17
1 28 16 11 16 13 0 31 -10 10 -14 24 -9 31 4 7 6 32 5 57 -2 44 14 73 35 61 5
-4 12 -3 15 2 8 13 -27 11 -43 -2 -12 -9 -13 -7 -8 8 6 16 5 17 -7 7 -12 -10
-15 -9 -13 8 1 12 6 20 12 17 17 -6 35 28 24 45 -8 11 -9 9 -7 -6 2 -15 -4
-21 -22 -23 -14 -2 -22 -1 -18 4 4 4 3 13 -2 19 -8 9 -6 14 5 19 9 3 13 2 10
-4 -3 -6 -1 -10 4 -10 6 0 11 7 11 15 0 10 7 14 23 12 12 -2 16 -2 10 0 -7 3
-13 9 -13 14 0 6 -10 3 -21 -5 -12 -8 -28 -12 -35 -9 -17 6 -18 24 -1 22 27
-3 37 2 37 19 -1 16 -1 16 -11 -1 -6 -9 -15 -15 -21 -11 -7 4 -6 9 3 15 7 4
11 11 7 14 -4 4 -18 -12 -33 -34z m10 -31 c3 -5 1 -10 -4 -10 -6 0 -11 5 -11
10 0 6 2 10 4 10 3 0 8 -4 11 -10z m11 -43 c1 -9 -2 -15 -7 -11 -5 3 -7 9 -4
14 3 4 0 11 -5 13 -6 3 -5 4 1 3 7 -1 13 -10 15 -19z m-32 -112 c-3 -7 -12
-11 -20 -8 -11 4 -12 9 -3 19 14 17 30 9 23 -11z m6 -101 c0 -16 -16 -19 -25
-4 -8 13 4 32 16 25 5 -4 9 -13 9 -21z m15 -42 c-3 -3 -11 0 -18 7 -9 10 -8
11 6 5 10 -3 15 -9 12 -12z m31 9 c-3 -5 1 -14 9 -21 17 -14 21 -35 5 -25 -17
10 -32 -5 -20 -20 7 -9 8 -15 1 -19 -6 -4 -8 -13 -4 -21 3 -8 0 -15 -7 -15 -9
0 -9 -4 -2 -12 10 -14 10 -53 -1 -64 -10 -10 -9 -26 2 -20 5 3 14 -1 21 -9 9
-10 9 -15 1 -15 -6 0 -10 -3 -9 -7 3 -13 -13 -53 -21 -53 -15 0 -34 30 -37 56
-2 15 4 29 16 37 19 11 19 12 -3 35 l-22 24 23 18 c13 11 17 20 10 22 -15 5
-21 45 -8 53 6 4 7 11 4 17 -4 6 -3 8 3 5 6 -4 15 5 21 18 7 14 14 25 17 25 4
0 4 -4 1 -9z m-11 -337 c0 -10 -4 -19 -10 -19 -5 0 -16 -4 -23 -9 -7 -4 -16
-5 -19 -2 -4 3 -1 6 6 6 7 0 9 5 5 12 -5 8 0 9 17 5 l24 -6 -24 18 -23 18 23
-2 c16 -1 24 -8 24 -21z m21 -64 c0 -11 -5 -20 -10 -20 -6 0 -5 -5 2 -12 17
-17 15 -33 -3 -18 -9 7 -13 21 -10 31 5 14 2 17 -16 14 -21 -4 -21 -3 -4 15
20 22 41 17 41 -10z m-76 -116 c0 -23 -35 -35 -56 -19 -18 13 -17 14 14 11 22
-2 32 1 32 10 0 8 -3 13 -7 13 -17 -3 -24 2 -18 11 8 14 35 -6 35 -26z m36 -2
c1 -7 0 -8 -3 -2 -2 5 -9 8 -14 4 -5 -3 -9 0 -9 6 0 15 23 7 26 -8z m-31 -50
c-3 -3 -11 0 -18 7 -9 10 -8 11 6 5 10 -3 15 -9 12 -12z m40 -2 c-3 -5 -12
-10 -18 -10 -7 0 -6 4 3 10 19 12 23 12 15 0z m-75 -44 c0 -2 -8 -10 -17 -17
-16 -13 -17 -12 -4 4 13 16 21 21 21 13z m44 -34 c3 -5 -1 -9 -9 -9 -8 0 -12
4 -9 9 3 4 7 8 9 8 2 0 6 -4 9 -8z m-24 -102 c-18 -12 -30 -13 -30 -2 0 4 10
9 22 9 18 2 20 0 8 -7z m40 -15 c-9 -11 -9 -15 -1 -15 7 0 9 -5 6 -10 -4 -6
-12 -5 -21 4 -16 16 -19 30 -5 21 5 -3 12 -1 16 5 3 5 9 10 12 10 3 0 0 -7 -7
-15z"/>
<path d="M2970 2117 c-17 -28 -20 -55 -5 -60 6 -3 10 6 10 22 -1 14 3 32 8 39
6 7 8 14 6 17 -3 2 -11 -6 -19 -18z"/>
<path d="M2947 2016 c-3 -8 2 -21 12 -30 16 -14 17 -13 16 11 0 29 -19 42 -28
19z m23 -6 c0 -5 -5 -10 -11 -10 -5 0 -7 5 -4 10 3 6 8 10 11 10 2 0 4 -4 4
-10z"/>
<path d="M2947 1943 c-4 -3 -7 -11 -7 -17 0 -6 5 -4 10 4 9 13 10 13 10 0 0
-9 -5 -21 -10 -26 -8 -8 -6 -15 4 -23 12 -10 17 -8 26 10 8 14 8 19 1 15 -14
-9 -14 6 -1 22 6 6 7 10 4 7 -4 -3 -12 0 -19 5 -7 5 -15 7 -18 3z"/>
<path d="M3037 2513 c-10 -9 -9 -23 1 -23 5 0 9 7 9 15 0 17 -1 18 -10 8z"/>
<path d="M2895 2459 c-4 -6 -5 -12 -2 -15 2 -3 7 2 10 11 7 17 1 20 -8 4z"/>
<path d="M3035 2389 c-11 -16 -1 -19 13 -3 7 8 8 14 3 14 -5 0 -13 -5 -16 -11z"/>
<path d="M3473 2335 c0 -8 4 -12 9 -9 5 3 6 10 3 15 -9 13 -12 11 -12 -6z"/>
<path d="M3030 2321 c0 -14 29 -21 36 -9 4 7 3 8 -4 4 -7 -4 -12 -2 -12 3 0 6
-4 11 -10 11 -5 0 -10 -4 -10 -9z"/>
<path d="M3030 2290 c0 -5 5 -10 11 -10 5 0 7 5 4 10 -3 6 -8 10 -11 10 -2 0
-4 -4 -4 -10z"/>
<path d="M3033 2259 c3 -9 0 -22 -6 -28 -8 -8 -7 -14 2 -23 11 -11 12 -10 7 0
-4 7 -3 18 3 25 7 9 7 17 -1 27 -8 13 -9 12 -5 -1z"/>
<path d="M3051 2214 c0 -11 3 -14 6 -6 3 7 2 16 -1 19 -3 4 -6 -2 -5 -13z"/>
<path d="M3041 2168 c-10 -16 -10 -23 0 -32 9 -8 10 -8 5 2 -4 7 -2 20 5 28 6
8 10 16 8 19 -3 2 -11 -5 -18 -17z"/>
<path d="M2916 2135 c-3 -8 -1 -15 4 -15 6 0 10 7 10 15 0 8 -2 15 -4 15 -2 0
-6 -7 -10 -15z"/>
<path d="M3040 2030 c-9 -6 -10 -10 -3 -10 6 0 15 5 18 10 8 12 4 12 -15 0z"/>
<path d="M2896 1964 c-3 -7 2 -10 15 -7 22 6 26 20 4 20 -8 0 -16 -6 -19 -13z"/>
<path d="M2880 1890 c-9 -6 -10 -10 -3 -10 6 0 15 5 18 10 8 12 4 12 -15 0z"/>
<path d="M3028 1893 c7 -3 16 -2 19 1 4 3 -2 6 -13 5 -11 0 -14 -3 -6 -6z"/>
<path d="M2895 1840 c-3 -6 1 -7 9 -4 18 7 21 14 7 14 -6 0 -13 -4 -16 -10z"/>
<path d="M3030 1810 c-13 -8 -12 -10 3 -10 9 0 17 5 17 10 0 12 -1 12 -20 0z"/>
<path d="M3036 1745 c-9 -26 -7 -32 5 -12 6 10 9 21 6 23 -2 3 -7 -2 -11 -11z"/>
<path d="M2930 1690 c0 -5 5 -10 11 -10 5 0 7 5 4 10 -3 6 -8 10 -11 10 -2 0
-4 -4 -4 -10z"/>
<path d="M2839 1611 c7 -5 9 -11 5 -13 -5 -3 -4 -3 3 -2 7 2 15 -1 18 -6 6
-10 -8 -14 -35 -10 -8 1 -12 -1 -8 -5 11 -11 51 -12 65 -2 14 10 7 31 -7 22
-4 -3 -13 2 -20 10 -7 8 -18 15 -24 15 -6 0 -5 -4 3 -9z"/>
<path d="M2835 1480 c-3 -5 -1 -10 4 -10 6 0 11 5 11 10 0 6 -2 10 -4 10 -3 0
-8 -4 -11 -10z"/>
<path d="M2805 1470 c-3 -5 -1 -10 4 -10 6 0 11 5 11 10 0 6 -2 10 -4 10 -3 0
-8 -4 -11 -10z"/>
<path d="M2855 1459 c-10 -15 3 -25 16 -12 7 7 7 13 1 17 -6 3 -14 1 -17 -5z"/>
<path d="M3010 1450 c0 -5 5 -10 10 -10 6 0 10 5 10 10 0 6 -4 10 -10 10 -5 0
-10 -4 -10 -10z"/>
<path d="M2999 1428 c-6 -23 -7 -48 -1 -52 4 -2 7 9 7 25 1 24 -2 38 -6 27z"/>
<path d="M2875 1321 c-6 -11 13 -26 22 -17 4 3 1 6 -6 6 -7 0 -9 5 -6 10 3 6
4 10 1 10 -3 0 -7 -4 -11 -9z"/>
<path d="M2945 1320 c-3 -6 1 -7 9 -4 18 7 21 14 7 14 -6 0 -13 -4 -16 -10z"/>
<path d="M2710 1211 c0 -6 4 -13 10 -16 6 -3 7 1 4 9 -7 18 -14 21 -14 7z"/>
<path d="M415 580 c3 -5 8 -10 11 -10 2 0 4 5 4 10 0 6 -5 10 -11 10 -5 0 -7
-4 -4 -10z"/>
<path d="M895 580 c3 -5 8 -10 11 -10 2 0 4 5 4 10 0 6 -5 10 -11 10 -5 0 -7
-4 -4 -10z"/>
<path d="M1335 580 c3 -5 8 -10 11 -10 2 0 4 5 4 10 0 6 -5 10 -11 10 -5 0 -7
-4 -4 -10z"/>
<path d="M5535 580 c3 -5 8 -10 11 -10 2 0 4 5 4 10 0 6 -5 10 -11 10 -5 0 -7
-4 -4 -10z"/>
</g>
</svg>
